<svg xmlns="http://www.w3.org/2000/svg" viewBox="0 0 100 89.66"><defs><style>.cls-1{fill:#646569;}</style></defs><g id="Lager_2" data-name="Lager 2"><g id="Lager_1-2" data-name="Lager 1"><path class="cls-1" d="M83.37,89.66A16.63,16.63,0,1,1,100,73,16.65,16.65,0,0,1,83.37,89.66Zm0-29.85A13.22,13.22,0,1,0,96.59,73,13.23,13.23,0,0,0,83.37,59.81Z"/><path class="cls-1" d="M83.37,83.61a1.71,1.71,0,0,1-1.7-1.71V64.15a1.71,1.71,0,0,1,3.41,0V81.9A1.72,1.72,0,0,1,83.37,83.61Z"/><path class="cls-1" d="M74.5,74.73a1.71,1.71,0,1,1,0-3.41H92.24a1.71,1.71,0,1,1,0,3.41Z"/><path class="cls-1" d="M63.73,82.36h0l-55.21,0A8.54,8.54,0,0,1,0,73.79L0,8.09A7.89,7.89,0,0,1,2.59,2.33,8.73,8.73,0,0,1,8.57,0H21.89a15.71,15.71,0,0,1,12,6.49l.89,1.36a12.36,12.36,0,0,0,9.13,4.94l40.84,0a8.54,8.54,0,0,1,8.53,8.53l0,39.17a1.72,1.72,0,0,1-1.71,1.71h0a1.71,1.71,0,0,1-1.7-1.71l0-39.17a5.14,5.14,0,0,0-5.11-5.12l-40.84,0a15.73,15.73,0,0,1-12-6.49L31,8.36a12.39,12.39,0,0,0-9.13-4.94H8.57A5.33,5.33,0,0,0,4.92,4.82,4.49,4.49,0,0,0,3.46,8.09l0,65.7a5.14,5.14,0,0,0,5.11,5.12l55.21,0a1.71,1.71,0,0,1,0,3.41Z"/><path class="cls-1" d="M66.19,24.68h0l-64.44,0a1.71,1.71,0,0,1,0-3.41h0l64.45,0a1.71,1.71,0,0,1,0,3.41Z"/></g></g></svg>