<svg xmlns="http://www.w3.org/2000/svg" viewBox="0 0 100 114.9"><defs><style>.cls-1{fill:#646569;}</style></defs><g id="Lager_2" data-name="Lager 2"><g id="Lager_1-2" data-name="Lager 1"><path class="cls-1" d="M60.34,114.9c-16.4,0-31.91-13.2-39.5-33.64l-.39-1.1a2.72,2.72,0,0,1,5.13-1.82c.12.35.25.69.37,1,6.69,18,20.51,30.08,34.39,30.08S88,97.37,94.72,79.39a2.73,2.73,0,0,1,5.11,1.9C92.23,101.71,76.73,114.9,60.34,114.9Z"/><path class="cls-1" d="M19.78,67.59a2.72,2.72,0,0,1-2.7-2.43,70.31,70.31,0,0,1-.42-7.71C16.66,26.31,36.67,0,60.34,0,76,0,91.25,12.49,99.13,31.81a2.73,2.73,0,0,1-5,2.06C87.05,16.6,73.8,5.45,60.34,5.45c-20.72,0-38.23,23.81-38.23,52a67.07,67.07,0,0,0,.38,7.12,2.71,2.71,0,0,1-2.41,3Z"/><path class="cls-1" d="M72.81,52.76H34.05a2.73,2.73,0,0,1,0-5.45H72.81a2.73,2.73,0,1,1,0,5.45Z"/><path class="cls-1" d="M19.79,52.76H2.72a2.73,2.73,0,0,1,0-5.45H19.79a2.73,2.73,0,1,1,0,5.45Z"/><path class="cls-1" d="M67.65,67.59H2.72a2.73,2.73,0,0,1,0-5.45H67.65a2.73,2.73,0,0,1,0,5.45Z"/></g></g></svg>