<?xml version="1.0" encoding="utf-8"?>
<!-- Generator: Adobe Illustrator 26.5.0, SVG Export Plug-In . SVG Version: 6.00 Build 0)  -->
<svg version="1.1" id="Lager_1" xmlns="http://www.w3.org/2000/svg" xmlns:xlink="http://www.w3.org/1999/xlink" x="0px" y="0px"
	 viewBox="0 0 708.7 708.7" style="enable-background:new 0 0 708.7 708.7;" xml:space="preserve">
<style type="text/css">
	.st0{fill:#64666A;}
</style>
<g>
	<g>
		<g>
			<path class="st0" d="M582.1,673.4H126.5c-30.7,0-55.7-25-55.7-55.7V161.2c0-30.2,25-54.7,55.7-54.7h67.9c6.1,0,11.1,5,11.1,11.1
				c0,6.1-5,11.1-11.1,11.1h-67.9c-18.4,0-33.4,14.6-33.4,32.5v456.5c0,18.4,15,33.4,33.4,33.4h455.6c18.4,0,33.4-15,33.4-33.4
				V162.1c0-18.4-15-33.4-33.4-33.4h-68c-6.1,0-11.1-5-11.1-11.1c0-6.1,5-11.1,11.1-11.1h68c30.7,0,55.7,25,55.7,55.7v455.6
				C637.8,648.4,612.8,673.4,582.1,673.4z"/>
		</g>
	</g>
	<g>
		<g>
			<path class="st0" d="M514.6,174.2H194c-6.1,0-11.1-5-11.1-11.1v-39.2c0-29.7,24.2-53.9,53.9-53.9h49c6.1,0,11.1,5,11.1,11.1
				c0,6.1-5,11.1-11.1,11.1h-49c-17.4,0-31.6,14.2-31.6,31.6V152h298.4v-28.1c0-17.4-14.2-31.6-31.6-31.6h-43.7
				c-6.1,0-11.1-5-11.1-11.1c0-6.1,5-11.1,11.1-11.1h43.7c29.7,0,53.9,24.2,53.9,53.9v39.2C525.8,169.3,520.8,174.2,514.6,174.2z"/>
		</g>
	</g>
	<g>
		<g>
			<path class="st0" d="M393.5,127h-73c-25.3,0-45.9-20.6-45.9-45.9s20.6-45.9,45.9-45.9h73c25.3,0,45.9,20.6,45.9,45.9
				S418.8,127,393.5,127z M320.5,57.6c-13,0-23.6,10.6-23.6,23.6c0,13,10.6,23.6,23.6,23.6h73c13,0,23.6-10.6,23.6-23.6
				c0-13-10.6-23.6-23.6-23.6H320.5z"/>
		</g>
	</g>
</g>
</svg>
