<?xml version="1.0" encoding="utf-8"?>
<!-- Generator: Adobe Illustrator 26.5.0, SVG Export Plug-In . SVG Version: 6.00 Build 0)  -->
<svg version="1.1" id="Lager_1" xmlns="http://www.w3.org/2000/svg" xmlns:xlink="http://www.w3.org/1999/xlink" x="0px" y="0px"
	 viewBox="0 0 708.7 708.7" style="enable-background:new 0 0 708.7 708.7;" xml:space="preserve">
<style type="text/css">
	.st0{fill:#64666A;}
</style>
<g>
	<g>
		<g>
			<path class="st0" d="M189.2,482.2h-67.4c-28.1,0-51-22.9-51-51v-6.7c0-28.1,22.9-51,51-51h67.4c28.1,0,51,22.9,51,51v6.7
				C240.2,459.4,217.3,482.2,189.2,482.2z M121.8,394.6c-16.5,0-29.9,13.4-29.9,29.9v6.7c0,16.5,13.4,29.9,29.9,29.9h67.4
				c16.5,0,29.9-13.4,29.9-29.9v-6.7c0-16.5-13.4-29.9-29.9-29.9H121.8z"/>
		</g>
		<g>
			<path class="st0" d="M155.5,394.6c-5.8,0-10.5-4.7-10.5-10.5V78c0-5.8,4.7-10.5,10.5-10.5c5.8,0,10.5,4.7,10.5,10.5v306.1
				C166.1,389.9,161.3,394.6,155.5,394.6z"/>
		</g>
		<g>
			<path class="st0" d="M155.5,641.2c-5.8,0-10.5-4.7-10.5-10.5V471.7c0-5.8,4.7-10.5,10.5-10.5c5.8,0,10.5,4.7,10.5,10.5v158.9
				C166.1,636.4,161.3,641.2,155.5,641.2z"/>
		</g>
	</g>
	<g>
		<g>
			<path class="st0" d="M388,307h-67.4c-28.1,0-51-22.9-51-51v-6.7c0-28.1,22.9-51,51-51H388c28.1,0,51,22.9,51,51v6.7
				C439,284.2,416.1,307,388,307z M320.6,219.4c-16.5,0-29.9,13.4-29.9,29.9v6.7c0,16.5,13.4,29.9,29.9,29.9H388
				c16.5,0,29.9-13.4,29.9-29.9v-6.7c0-16.5-13.4-29.9-29.9-29.9H320.6z"/>
		</g>
		<g>
			<path class="st0" d="M354.3,219.4c-5.8,0-10.5-4.7-10.5-10.5V78c0-5.8,4.7-10.5,10.5-10.5c5.8,0,10.5,4.7,10.5,10.5v130.9
				C364.9,214.7,360.2,219.4,354.3,219.4z"/>
		</g>
		<g>
			<path class="st0" d="M354.3,641.2c-5.8,0-10.5-4.7-10.5-10.5V296.5c0-5.8,4.7-10.5,10.5-10.5c5.8,0,10.5,4.7,10.5,10.5v334.2
				C364.9,636.4,360.2,641.2,354.3,641.2z"/>
		</g>
	</g>
	<g>
		<g>
			<path class="st0" d="M586.8,569.8h-67.4c-28.1,0-51-22.9-51-51v-6.7c0-28.1,22.9-51,51-51h67.4c28.1,0,51,22.9,51,51v6.7
				C637.8,547,614.9,569.8,586.8,569.8z M519.4,482.2c-16.5,0-29.9,13.4-29.9,29.9v6.7c0,16.5,13.4,29.9,29.9,29.9h67.4
				c16.5,0,29.9-13.4,29.9-29.9v-6.7c0-16.5-13.4-29.9-29.9-29.9H519.4z"/>
		</g>
		<g>
			<path class="st0" d="M553.1,482.2c-5.8,0-10.5-4.7-10.5-10.5V78c0-5.8,4.7-10.5,10.5-10.5c5.8,0,10.5,4.7,10.5,10.5v393.7
				C563.7,477.5,559,482.2,553.1,482.2z"/>
		</g>
		<g>
			<path class="st0" d="M553.1,641.2c-5.8,0-10.5-4.7-10.5-10.5v-71.3c0-5.8,4.7-10.5,10.5-10.5c5.8,0,10.5,4.7,10.5,10.5v71.3
				C563.7,636.4,559,641.2,553.1,641.2z"/>
		</g>
	</g>
</g>
</svg>
