<svg xmlns="http://www.w3.org/2000/svg" viewBox="0 0 100 100"><defs><style>.cls-1{fill:#646569;}</style></defs><g id="Lager_2" data-name="Lager 2"><g id="Lager_1-2" data-name="Lager 1"><path class="cls-1" d="M12.49,25A12.49,12.49,0,1,1,25,12.49,12.5,12.5,0,0,1,12.49,25Zm0-21.58a9.1,9.1,0,1,0,9.1,9.1A9.11,9.11,0,0,0,12.49,3.39Z"/><path class="cls-1" d="M50,25A12.49,12.49,0,1,1,62.49,12.49,12.5,12.5,0,0,1,50,25ZM50,3.39a9.1,9.1,0,1,0,9.1,9.1A9.11,9.11,0,0,0,50,3.39Z"/><path class="cls-1" d="M87.51,25A12.49,12.49,0,1,1,100,12.49,12.5,12.5,0,0,1,87.51,25Zm0-21.58a9.1,9.1,0,1,0,9.1,9.1A9.11,9.11,0,0,0,87.51,3.39Z"/><path class="cls-1" d="M87.51,62.49A12.49,12.49,0,1,1,100,50,12.5,12.5,0,0,1,87.51,62.49Zm0-21.59a9.1,9.1,0,1,0,9.1,9.1A9.11,9.11,0,0,0,87.51,40.9Z"/><path class="cls-1" d="M50,62.49A12.49,12.49,0,1,1,62.49,50,12.51,12.51,0,0,1,50,62.49ZM50,40.9A9.1,9.1,0,1,0,59.1,50,9.11,9.11,0,0,0,50,40.9Z"/><path class="cls-1" d="M12.49,62.49A12.49,12.49,0,1,1,25,50,12.5,12.5,0,0,1,12.49,62.49Zm0-21.59a9.1,9.1,0,1,0,9.1,9.1A9.11,9.11,0,0,0,12.49,40.9Z"/><path class="cls-1" d="M87.51,100A12.49,12.49,0,1,1,100,87.51,12.5,12.5,0,0,1,87.51,100Zm0-21.59a9.1,9.1,0,1,0,9.1,9.1A9.12,9.12,0,0,0,87.51,78.41Z"/><path class="cls-1" d="M50,100A12.49,12.49,0,1,1,62.49,87.51,12.51,12.51,0,0,1,50,100Zm0-21.59a9.1,9.1,0,1,0,9.1,9.1A9.11,9.11,0,0,0,50,78.41Z"/><path class="cls-1" d="M12.49,100A12.49,12.49,0,1,1,25,87.51,12.5,12.5,0,0,1,12.49,100Zm0-21.59a9.1,9.1,0,1,0,9.1,9.1A9.11,9.11,0,0,0,12.49,78.41Z"/></g></g></svg>