<?xml version="1.0" encoding="utf-8"?>
<!-- Generator: Adobe Illustrator 26.3.1, SVG Export Plug-In . SVG Version: 6.00 Build 0)  -->
<svg version="1.1" xmlns="http://www.w3.org/2000/svg" xmlns:xlink="http://www.w3.org/1999/xlink" x="0px" y="0px"
	 viewBox="0 0 113.4 113.4" style="enable-background:new 0 0 113.4 113.4;" xml:space="preserve">
<style type="text/css">
	.st0{display:none;}
	.st1{display:inline;}
	.st2{fill:#636569;}
	.st3{fill:#64666A;}
</style>
<g id="Lager_7">
	<g class="st1">
		<g>
			<path class="st2" d="M104.2,107H18.7c-3.6,0-6.5-1.1-8.6-3.3c-3.1-3.3-3.1-7.8-3.1-8.4V16.8c0-1.1,0.9-2.1,2.1-2.1
				c1.1,0,2.1,0.9,2.1,2.1v78.5c0,0,0,0.1,0,0.1c0,0-0.1,3.3,1.9,5.4c1.2,1.3,3.1,2,5.6,2h83.4V27.2H17.5c-1.1,0-2.1-0.9-2.1-2.1
				c0-1.1,0.9-2.1,2.1-2.1h86.7c1.1,0,2.1,0.9,2.1,2.1v79.7C106.3,106,105.4,107,104.2,107z"/>
		</g>
		<g>
			<path class="st2" d="M85.2,27.2H37.6c-1.1,0-2.1-0.9-2.1-2.1c0-1.1,0.9-2.1,2.1-2.1h45.5V10.6H18.4c-1.1,0-2.1-0.9-2.1-2.1
				c0-1.1,0.9-2.1,2.1-2.1h66.8c1.1,0,2.1,0.9,2.1,2.1v16.7C87.2,26.3,86.3,27.2,85.2,27.2z"/>
		</g>
		<g>
			<path class="st2" d="M17.5,27.2c-5.7,0-10.4-4.7-10.4-10.4c0-5.7,4.7-10.4,10.4-10.4c1.1,0,2.1,0.9,2.1,2.1
				c0,1.1-0.9,2.1-2.1,2.1c-3.5,0-6.3,2.8-6.3,6.3c0,3.5,2.8,6.3,6.3,6.3c1.1,0,2.1,0.9,2.1,2.1C19.6,26.3,18.6,27.2,17.5,27.2z"/>
		</g>
		<g>
			<path class="st2" d="M90.8,71.5c-4,0-7.2-3.2-7.2-7.2s3.2-7.2,7.2-7.2c4,0,7.2,3.2,7.2,7.2S94.7,71.5,90.8,71.5z M90.8,61.3
				c-1.7,0-3,1.4-3,3c0,1.7,1.4,3,3,3c1.7,0,3-1.4,3-3C93.8,62.7,92.4,61.3,90.8,61.3z"/>
		</g>
	</g>
</g>
</svg>
