<?xml version="1.0" encoding="utf-8"?>
<!-- Generator: Adobe Illustrator 26.4.1, SVG Export Plug-In . SVG Version: 6.00 Build 0)  -->
<svg version="1.1" id="Lager_1" xmlns="http://www.w3.org/2000/svg" xmlns:xlink="http://www.w3.org/1999/xlink" x="0px" y="0px"
	 viewBox="0 0 113.4 113.4" style="enable-background:new 0 0 113.4 113.4;" xml:space="preserve">
<style type="text/css">
	.st0{fill:#64666A;}
</style>
<g>
	<g>
		<g>
			<path class="st0" d="M106.5,84H30.8c-0.8,0-1.5-0.7-1.5-1.5c0-0.8,0.7-1.5,1.5-1.5H105V32.5H32.4v27.2c0,0.8-0.7,1.5-1.5,1.5
				c-0.8,0-1.5-0.7-1.5-1.5V30.9c0-0.8,0.7-1.5,1.5-1.5h75.7c0.8,0,1.5,0.7,1.5,1.5v51.5C108,83.3,107.3,84,106.5,84z"/>
		</g>
		<g>
			<path class="st0" d="M68.7,64.6c-0.4,0-0.7-0.1-1-0.4L29.8,32.1c-0.6-0.6-0.7-1.5-0.2-2.2c0.5-0.6,1.5-0.7,2.2-0.2l36.8,31.3
				l36.8-31.3c0.6-0.5,1.6-0.5,2.2,0.2c0.6,0.6,0.5,1.6-0.2,2.2L69.7,64.2C69.4,64.5,69,64.6,68.7,64.6z"/>
		</g>
	</g>
	<g>
		<path class="st0" d="M29.4,56.6H8.6C7.7,56.6,7,55.9,7,55c0-0.8,0.7-1.5,1.5-1.5h20.8c0.8,0,1.5,0.7,1.5,1.5
			C30.9,55.9,30.2,56.6,29.4,56.6z"/>
	</g>
	<g>
		<path class="st0" d="M29.4,84H6.9c-0.8,0-1.5-0.7-1.5-1.5c0-0.8,0.7-1.5,1.5-1.5h22.5c0.8,0,1.5,0.7,1.5,1.5
			C30.9,83.3,30.2,84,29.4,84z"/>
	</g>
	<g>
		<path class="st0" d="M56.9,71.8H19c-0.8,0-1.5-0.7-1.5-1.5c0-0.8,0.7-1.5,1.5-1.5h37.9c0.8,0,1.5,0.7,1.5,1.5
			C58.4,71.1,57.7,71.8,56.9,71.8z"/>
	</g>
</g>
</svg>
