<?xml version="1.0" encoding="utf-8"?>
<!-- Generator: Adobe Illustrator 26.5.0, SVG Export Plug-In . SVG Version: 6.00 Build 0)  -->
<svg version="1.1" id="Lager_1" xmlns="http://www.w3.org/2000/svg" xmlns:xlink="http://www.w3.org/1999/xlink" x="0px" y="0px"
	 viewBox="0 0 708.7 708.7" style="enable-background:new 0 0 708.7 708.7;" xml:space="preserve">
<style type="text/css">
	.st0{fill:#64666A;}
	.st1{fill:#CD132E;}
</style>
<g>
	<path class="st0" d="M354.3,70.9C198,70.9,70.9,198,70.9,354.3c0,156.3,127.2,283.5,283.5,283.5c156.3,0,283.5-127.2,283.5-283.5
		C637.8,198,510.6,70.9,354.3,70.9z M354.3,619.9c-146.5,0-265.6-119.2-265.6-265.6c0-146.5,119.2-265.6,265.6-265.6
		c146.5,0,265.6,119.2,265.6,265.6C619.9,500.8,500.8,619.9,354.3,619.9z"/>
	<path class="st1" d="M604.8,352.9l-0.3-5.4c-0.2-3.6-0.5-7.3-0.7-11c-0.2-3.7-0.4-7.3-1.2-11.6c-1.4-8.1-2.3-16.7-4.4-24.7
		c-7.5-32.2-22.1-64.5-43.8-93.1c-21.6-28.5-50.1-53.4-83.3-70.7c-33.3-17.1-71-26.8-108.8-27.5l-7.1-0.3l-0.4,0l-1.1,0l-0.8,0.1
		l-1.7,0.1l-3.4,0.2l-13.4,0.9c-4.3,0.1-9.3,1.1-14,1.8L306,114c-9.1,2.4-18.2,4.6-27.1,7.5l-13.1,5l-6.5,2.5l-6.2,3.1
		c-33.5,15.9-62.5,39-84.8,66c-22.4,27-37.5,58.1-46,88.9c-1.7,7.8-4.2,15.3-5.2,23.1c-1,7.7-2.4,15.2-2.9,22.7
		c-0.3,7.7-0.6,14.5-0.8,22.5c0.5,7,1,13.9,1.4,20.6l0.3,5l0.9,5.1c0.6,3.4,1.2,6.8,1.8,10.1c0.6,3.3,1.2,6.6,1.8,9.8
		c0.6,3.2,1.7,6.2,2.6,9.3c1.8,6,3.6,11.9,5.3,17.7c2.3,5.5,4.6,10.9,6.7,16.1c1.1,2.6,2.1,5.2,3.3,7.6c1.3,2.4,2.6,4.7,3.9,7
		c2.5,4.6,5,9,7.3,13.3c5.3,8.1,10.6,15.3,15.1,21.9c5.3,6.1,10,11.5,14.1,16.2c4,4.8,8.3,8,11.3,11.1c6.3,5.9,9.6,9,9.6,9
		c1.9,1.8,4.9,1.7,6.8-0.1c1.9-1.9,1.9-5-0.1-6.9l-0.4-0.4c0,0-3.1-3.1-9-8.9c-2.8-3-6.9-6.2-10.5-10.9c-3.8-4.6-8.1-9.9-13-15.8
		c-4.2-6.5-9.1-13.4-13.9-21.3c-2.1-4.1-4.3-8.4-6.6-12.8c-1.1-2.2-2.3-4.5-3.5-6.7c-1-2.4-1.9-4.8-2.9-7.3c-1.9-5-3.9-10.1-6-15.3
		c-1.5-5.5-3-11.1-4.6-16.8c-0.7-2.9-1.7-5.8-2.2-8.8c-0.5-3-0.9-6-1.4-9c-0.5-3-0.9-6.1-1.4-9.2l-0.7-4.7l-0.2-5
		c-0.3-6.7-0.6-13.6-0.9-20.6c0.4-6.6,0.9-13.4,1.3-20.3c0.6-7,2.2-14,3.2-21.1c1.1-7.2,3.6-14.1,5.4-21.3
		c8.7-28.4,23.4-56.8,44.7-81.2c21.2-24.4,48.4-44.8,79.2-58.4l5.7-2.7l6-2.1l12-4.2c8.1-2.4,16.4-4.2,24.7-6.1l12.3-1.7
		c4.1-0.5,8-1.4,12.7-1.4l13.5-0.5l3.4-0.1l1.7-0.1l0.8,0c0.3,0-0.9,0-0.2,0l0.4,0l6.4,0.4c34,1.6,67.4,11.1,96.6,27
		c29.1,16.2,53.7,38.9,72,64.4c18.4,25.6,30.4,54.1,36.2,82.2c1.7,7,2,13.6,3.2,20.3c0.6,3.1,0.7,7,0.8,10.7c0.1,3.7,0.3,7.3,0.4,11
		l0.2,5.2l0,0.6l-0.1,1.2l-0.2,2.5c-0.2,3.3-0.5,6.6-0.7,9.8c-0.4,6.5-0.7,12.8-2.3,18.9c-1.2,6.1-2.4,12.1-3.5,17.9
		c-1.8,5.7-3.6,11.2-5.4,16.6c-0.9,2.7-1.6,5.4-2.6,7.9c-1.2,2.5-2.3,5-3.4,7.4c-2.2,4.9-4.4,9.6-6.4,14.2
		c-5.4,8.5-9.7,16.9-14.9,23.9c-5.4,6.7-10,13.6-14.8,18.6c-4.8,5-9,9.4-12.7,13.3c-4,3.9-8.5,7.2-11.6,9.9
		c-6.5,5.4-9.9,8.2-9.9,8.2c-0.1,0.1-0.3,0.2-0.4,0.3c-8.3,7.2-9.1,19.8-1.9,28.1c7.2,8.3,19.8,9.1,28.1,1.9c0,0,3.4-2.9,9.7-8.5
		c3.2-2.9,7.1-5.9,11.7-10.5c4.7-5,10-10.8,16-17.3c5.8-6.6,10.8-14.4,17-22.6c5.8-8.4,10.8-18.4,16.7-28.6c2.3-5.4,4.7-11,7.2-16.8
		c1.2-2.9,2.5-5.8,3.7-8.8c1.1-3,1.9-6.2,2.9-9.4c1.8-6.3,3.7-12.9,5.7-19.5c1.2-6.8,2.4-13.8,3.6-21c1.5-7.1,1.7-14.5,2.1-22
		c0.2-3.8,0.3-7.5,0.5-11.4l0.1-2.9l0.1-1.4l0-0.7L604.8,352.9z"/>
	<path class="st0" d="M492.9,221.2c1.4-1.5,1.4-3.8,0-5.3c-1.5-1.5-3.9-1.6-5.4-0.2L370.1,326.2c-12.3-6.6-28.6-5-38.8,5.1
		c-12.7,12.7-12.7,33.3,0,46c6.1,6.1,14.3,9.5,23,9.5c8.7,0,16.8-3.4,23-9.5c10.5-10.5,12.2-26.5,5.2-38.9L492.9,221.2z
		 M364.7,364.7c-5.5,5.5-15.2,5.5-20.7,0c-5.7-5.7-5.7-15,0-20.7c2.8-2.8,6.4-4.3,10.3-4.3c3.6,0,7,1.4,9.7,3.8
		c0.2,0.3,0.4,0.6,0.6,0.9c0.2,0.2,0.4,0.2,0.6,0.4C370.3,350.5,370.1,359.2,364.7,364.7z"/>
</g>
</svg>
