<?xml version="1.0" encoding="utf-8"?>
<!-- Generator: Adobe Illustrator 26.4.1, SVG Export Plug-In . SVG Version: 6.00 Build 0)  -->
<svg version="1.1" id="Lager_1" xmlns="http://www.w3.org/2000/svg" xmlns:xlink="http://www.w3.org/1999/xlink" x="0px" y="0px"
	 viewBox="0 0 113.4 113.4" style="enable-background:new 0 0 113.4 113.4;" xml:space="preserve">
<style type="text/css">
	.st0{fill:#64666A;}
</style>
<g>
	<g>
		<g>
			<path class="st0" d="M56.7,57.5c-0.2,0-0.4,0-0.6-0.1L6.9,35.1C6.4,34.9,6,34.3,6,33.7c0-0.6,0.4-1.2,0.9-1.4L56,10
				c0.4-0.2,0.9-0.2,1.3,0l49.1,22.3c0.6,0.3,0.9,0.8,0.9,1.4c0,0.6-0.4,1.2-0.9,1.4L63.2,54.7c-0.8,0.4-1.7,0-2.1-0.8
				c-0.4-0.8,0-1.7,0.8-2.1L102,33.7L56.7,13.1L11.4,33.7l46,20.9c0.8,0.4,1.1,1.3,0.8,2.1C57.9,57.2,57.3,57.5,56.7,57.5z"/>
		</g>
	</g>
	<g>
		<g>
			<path class="st0" d="M56.7,72.1c-0.2,0-0.4,0-0.6-0.1L6.9,49.7c-0.8-0.4-1.1-1.3-0.8-2.1c0.4-0.8,1.3-1.1,2.1-0.8l48.5,22
				l48.5-22c0.8-0.4,1.7,0,2.1,0.8c0.4,0.8,0,1.7-0.8,2.1L57.3,71.9C57.1,72,56.9,72.1,56.7,72.1z"/>
		</g>
	</g>
	<g>
		<g>
			<path class="st0" d="M56.7,87.8c-0.2,0-0.4,0-0.6-0.1L6.9,65.4c-0.8-0.4-1.1-1.3-0.8-2.1c0.4-0.8,1.3-1.1,2.1-0.8l48.5,22
				l48.5-22c0.8-0.4,1.7,0,2.1,0.8c0.4,0.8,0,1.7-0.8,2.1L57.3,87.7C57.1,87.8,56.9,87.8,56.7,87.8z"/>
		</g>
	</g>
	<g>
		<g>
			<path class="st0" d="M56.7,103.5c-0.2,0-0.4,0-0.6-0.1L6.9,81.1c-0.8-0.4-1.1-1.3-0.8-2.1c0.4-0.8,1.3-1.1,2.1-0.8l48.5,22
				l48.5-22c0.8-0.4,1.7,0,2.1,0.8c0.4,0.8,0,1.7-0.8,2.1l-49.1,22.3C57.1,103.5,56.9,103.5,56.7,103.5z"/>
		</g>
	</g>
</g>
</svg>
