<svg xmlns="http://www.w3.org/2000/svg" viewBox="0 0 100 71.02"><defs><style>.cls-1{fill:#646569;}</style></defs><g id="Lager_2" data-name="Lager 2"><g id="Lager_1-2" data-name="Lager 1"><path class="cls-1" d="M51.4,71a1.42,1.42,0,0,1-.81-.26L.63,36.71a1.46,1.46,0,0,1,0-2.4L50.59.25a1.46,1.46,0,0,1,2.27,1.2V23.84H98.55A1.45,1.45,0,0,1,100,25.29V45.73a1.45,1.45,0,0,1-1.45,1.45H57.09a1.45,1.45,0,1,1,0-2.9h40V26.74H51.4A1.45,1.45,0,0,1,50,25.29V4.2L4,35.51,50,66.82V52.24a1.46,1.46,0,0,1,2.91,0V69.56A1.47,1.47,0,0,1,51.4,71Z"/></g></g></svg>