<svg xmlns="http://www.w3.org/2000/svg" viewBox="0 0 100 102.32"><defs><style>.cls-1{fill:#646569;}</style></defs><g id="Lager_2" data-name="Lager 2"><g id="Lager_1-2" data-name="Lager 1"><path class="cls-1" d="M16.82,36.46a1.64,1.64,0,0,1-1.16-2.8L48.84.48a1.68,1.68,0,0,1,2.32,0L84.34,33.66A1.64,1.64,0,1,1,82,36L50,4,18,36A1.64,1.64,0,0,1,16.82,36.46Z"/><path class="cls-1" d="M50,87.32a1.63,1.63,0,0,1-1.64-1.64v-84a1.64,1.64,0,0,1,3.28,0v84A1.63,1.63,0,0,1,50,87.32Z"/><path class="cls-1" d="M98.36,102.32H1.64A1.64,1.64,0,0,1,0,100.68v-30a1.64,1.64,0,0,1,3.28,0V99H96.72V70.68a1.64,1.64,0,0,1,3.28,0v30A1.64,1.64,0,0,1,98.36,102.32Z"/></g></g></svg>