<?xml version="1.0" encoding="utf-8"?>
<!-- Generator: Adobe Illustrator 26.5.0, SVG Export Plug-In . SVG Version: 6.00 Build 0)  -->
<svg version="1.1" id="Lager_1" xmlns="http://www.w3.org/2000/svg" xmlns:xlink="http://www.w3.org/1999/xlink" x="0px" y="0px"
	 viewBox="0 0 708.7 708.7" style="enable-background:new 0 0 708.7 708.7;" xml:space="preserve">
<style type="text/css">
	.st0{fill:#64666A;}
</style>
<g>
	<path class="st0" d="M354.3,70.9C198,70.9,70.9,198,70.9,354.3c0,156.3,127.2,283.5,283.5,283.5c156.3,0,283.5-127.2,283.5-283.5
		C637.8,198,510.6,70.9,354.3,70.9z M354.3,619.9c-146.5,0-265.6-119.2-265.6-265.6c0-146.5,119.2-265.6,265.6-265.6
		c146.5,0,265.6,119.2,265.6,265.6C619.9,500.8,500.8,619.9,354.3,619.9z"/>
	<path class="st0" d="M492.9,221.2c1.4-1.5,1.4-3.8,0-5.3c-1.5-1.5-3.9-1.6-5.4-0.2L370.1,326.2c-12.3-6.6-28.6-5-38.8,5.1
		c-12.7,12.7-12.7,33.3,0,46c6.1,6.1,14.3,9.5,23,9.5c8.7,0,16.8-3.4,23-9.5c10.5-10.5,12.2-26.5,5.2-38.9L492.9,221.2z
		 M364.7,364.7c-5.5,5.5-15.2,5.5-20.7,0c-5.7-5.7-5.7-15,0-20.7c2.8-2.8,6.4-4.3,10.3-4.3c3.6,0,7,1.4,9.7,3.8
		c0.2,0.3,0.4,0.6,0.6,0.9c0.2,0.2,0.4,0.2,0.6,0.4C370.3,350.5,370.1,359.2,364.7,364.7z"/>
</g>
</svg>
