<?xml version="1.0" encoding="utf-8"?>
<!-- Generator: Adobe Illustrator 27.9.0, SVG Export Plug-In . SVG Version: 6.00 Build 0)  -->
<svg version="1.1" id="Lager_1" xmlns="http://www.w3.org/2000/svg" xmlns:xlink="http://www.w3.org/1999/xlink" x="0px" y="0px"
	 viewBox="0 0 283.5 283.5" style="enable-background:new 0 0 283.5 283.5;" xml:space="preserve">
<style type="text/css">
	.st0{fill:#5F6263;}
</style>
<g>
	<g>
		<g>
			<path class="st0" d="M117.3,270.1c-0.3,0-0.6,0-0.9-0.1C55.3,258.1,11,204.1,11,141.7C11,69.6,69.6,11,141.7,11
				c2.5,0,4.6,2.1,4.6,4.6c0,2.5-2.1,4.6-4.6,4.6c-67,0-121.6,54.5-121.6,121.6c0,58,41.2,108.2,98,119.3c2.5,0.5,4.1,2.9,3.6,5.4
				C121.4,268.6,119.5,270.1,117.3,270.1z"/>
		</g>
	</g>
	<g>
		<g>
			<path class="st0" d="M141.7,272.5c-2.5,0-4.6-2.1-4.6-4.6c0-2.5,2.1-4.6,4.6-4.6c67,0,121.6-54.5,121.6-121.6
				c0-56.6-40-106.5-95.2-118.7c-2.5-0.5-4.1-3-3.5-5.5c0.5-2.5,3-4.1,5.5-3.5c28.6,6.3,54.6,22.4,73.1,45.3
				c18.8,23.2,29.2,52.5,29.2,82.4C272.5,213.8,213.8,272.5,141.7,272.5z"/>
		</g>
	</g>
	<g>
		<g>
			<path class="st0" d="M110.7,50.4c-1.2,0-2.4-0.5-3.3-1.4c-1.8-1.8-1.7-4.7,0.1-6.5l31-30.3c1.8-1.8,4.7-1.7,6.5,0.1
				c1.8,1.8,1.7,4.7-0.1,6.5l-31,30.3C113,50,111.9,50.4,110.7,50.4z"/>
		</g>
	</g>
	<g>
		<g>
			<path class="st0" d="M141.7,272.5c-1.3,0-2.6-0.6-3.5-1.7c-1.6-2-1.4-4.9,0.6-6.5l35.6-29.7c2-1.6,4.9-1.4,6.5,0.6
				c1.6,2,1.4,4.9-0.6,6.5l-35.6,29.7C143.8,272.2,142.8,272.5,141.7,272.5z"/>
		</g>
	</g>
</g>
</svg>
