<svg xmlns="http://www.w3.org/2000/svg" viewBox="0 0 100 99.99"><defs><style>.cls-1{fill:#646569;}</style></defs><g id="Lager_2" data-name="Lager 2"><g id="Lager_1-2" data-name="Lager 1"><path class="cls-1" d="M62.61,100h0c-1,0-2.83-.43-4.29-3.27L42.2,65.37a20.82,20.82,0,0,0-7.59-7.58L3.27,41.67C.28,40.13-.06,38.18,0,37.15s.64-2.92,3.8-4.07L93.26.48c2.59-.94,4.84-.47,6,1.17.63.9,1.19,2.51.25,5.08L66.9,96.18C65.65,99.61,63.49,100,62.61,100ZM4,37.4a3.33,3.33,0,0,0,1.08.79L36.4,54.31a24.65,24.65,0,0,1,9.28,9.27L61.8,94.93A3.34,3.34,0,0,0,62.58,96a3.28,3.28,0,0,0,.65-1.17L95.83,5.39a2.56,2.56,0,0,0,.22-1.49s-.1,0-.25,0a3.74,3.74,0,0,0-1.21.26L5.15,36.76A3.38,3.38,0,0,0,4,37.4Z"/></g></g></svg>