<svg xmlns="http://www.w3.org/2000/svg" viewBox="0 0 100 140.72"><defs><style>.cls-1{fill:#646569;}</style></defs><g id="Lager_2" data-name="Lager 2"><g id="Lager_1-2" data-name="Lager 1"><path class="cls-1" d="M74.69,140.72H14.26A11.87,11.87,0,0,1,2.4,128.92L0,79.61V79.5A11.88,11.88,0,0,1,11.86,67.63H77.09A11.88,11.88,0,0,1,89,79.5v.11l-2.39,49.31A11.88,11.88,0,0,1,74.69,140.72ZM4.55,79.44,7,128.75v.11a7.32,7.32,0,0,0,7.31,7.31H74.69A7.31,7.31,0,0,0,82,128.86a.37.37,0,0,1,0-.11L84.4,79.44a7.32,7.32,0,0,0-7.31-7.25H11.86A7.32,7.32,0,0,0,4.55,79.44Z"/><path class="cls-1" d="M77.26,72.19a2.23,2.23,0,0,1-1.4-.49,2.26,2.26,0,0,1-.39-3.19L86.63,54.25C94,44.9,103.31,26.92,83.69,11.56c-9.52-7.45-19-9-28.18-4.56-7.43,3.58-12.36,9.87-14,11.94l-2.46,3.15a2.28,2.28,0,1,1-3.58-2.81L38,16.14c1.78-2.28,7.2-9.2,15.58-13.24C61-.71,72.8-2.75,86.5,8c16.6,13,18,30.9,3.71,49.09L79.05,71.31A2.26,2.26,0,0,1,77.26,72.19Z"/></g></g></svg>