<svg xmlns="http://www.w3.org/2000/svg" viewBox="0 0 100 100"><defs><style>.cls-1{fill:#646569;}</style></defs><g id="Lager_2" data-name="Lager 2"><g id="Lager_1-2" data-name="Lager 1"><path class="cls-1" d="M14.64,100a12.54,12.54,0,0,1-8.95-3.71l-2-2a12.65,12.65,0,0,1,0-17.9L33.62,46.5A34.33,34.33,0,0,1,77.94,2.25,1.8,1.8,0,0,1,79,3.54a1.78,1.78,0,0,1-.48,1.61l-19.2,19.2A11.52,11.52,0,1,0,75.65,40.64l19.2-19.2a1.76,1.76,0,0,1,2.9.62,34.31,34.31,0,0,1-32,46.56h0a34.24,34.24,0,0,1-12.2-2.23L23.59,96.29A12.54,12.54,0,0,1,14.64,100Zm51-96.47A30.78,30.78,0,0,0,37.32,46.24a1.75,1.75,0,0,1-.38,1.93L6.21,78.91a9.1,9.1,0,0,0,0,12.9l2,2a9.14,9.14,0,0,0,12.91,0L51.83,63.06a1.79,1.79,0,0,1,1.93-.38A30.54,30.54,0,0,0,65.7,65.09h0A30.78,30.78,0,0,0,95.32,26L78.15,43.14A15.05,15.05,0,1,1,56.86,21.86L74,4.68A30.89,30.89,0,0,0,65.68,3.53Z"/></g></g></svg>