<?xml version="1.0" encoding="utf-8"?>
<!-- Generator: Adobe Illustrator 26.5.0, SVG Export Plug-In . SVG Version: 6.00 Build 0)  -->
<svg version="1.1" id="Lager_1" xmlns="http://www.w3.org/2000/svg" xmlns:xlink="http://www.w3.org/1999/xlink" x="0px" y="0px"
	 viewBox="0 0 708.7 708.7" style="enable-background:new 0 0 708.7 708.7;" xml:space="preserve">
<style type="text/css">
	.st0{fill:#64666A;}
</style>
<g>
	<g>
		<path class="st0" d="M543.5,608.5c-52,0-94.3-42.3-94.3-94.3c0-52,42.3-94.3,94.3-94.3c52,0,94.3,42.3,94.3,94.3
			C637.8,566.2,595.5,608.5,543.5,608.5z M543.5,439.3c-41.3,0-74.9,33.6-74.9,74.9c0,41.3,33.6,74.9,74.9,74.9
			c41.3,0,74.9-33.6,74.9-74.9C618.5,472.9,584.8,439.3,543.5,439.3z"/>
	</g>
	<g>
		<g>
			<path class="st0" d="M543.5,574.2c-5.3,0-9.7-4.3-9.7-9.7V463.9c0-5.3,4.3-9.7,9.7-9.7c5.3,0,9.7,4.3,9.7,9.7v100.6
				C553.2,569.8,548.9,574.2,543.5,574.2z"/>
		</g>
		<g>
			<path class="st0" d="M493.2,523.9c-5.3,0-9.7-4.3-9.7-9.7c0-5.3,4.3-9.7,9.7-9.7l100.6,0c5.3,0,9.7,4.3,9.7,9.7
				c0,5.3-4.3,9.7-9.7,9.7L493.2,523.9z"/>
		</g>
	</g>
	<g>
		<g>
			<path class="st0" d="M432.2,567.1L432.2,567.1l-313-0.2c-26.7,0-48.3-21.7-48.3-48.4L71.1,146c0-12.3,5.1-23.9,14.4-32.6
				c9.1-8.5,21.2-13.2,33.9-13.2c0,0,0,0,0,0l75.5,0.1c24.6,0,54.5,16.2,67.9,36.8l5,7.7c9.9,15.2,33.6,28,51.8,28l231.5,0.2
				c26.7,0,48.3,21.7,48.3,48.4l-0.2,222.1c0,5.3-4.3,9.7-9.7,9.7c0,0,0,0,0,0c-5.3,0-9.7-4.3-9.7-9.7l0.2-222.1c0-16-13-29-29-29
				l-231.5-0.2c-24.6,0-54.5-16.2-67.9-36.8l-5-7.7c-9.9-15.2-33.6-28-51.8-28l-75.5-0.1c0,0,0,0,0,0c-7.8,0-15.2,2.8-20.7,8
				c-5.4,5-8.3,11.6-8.3,18.5l-0.3,372.5c0,16,13,29,29,29l313,0.2c5.3,0,9.7,4.3,9.7,9.7C441.8,562.8,437.5,567.1,432.2,567.1z"/>
		</g>
		<g>
			<path class="st0" d="M446.1,240.1C446.1,240.1,446.1,240.1,446.1,240.1l-365.4-0.3c-5.3,0-9.7-4.3-9.7-9.7c0-5.3,4.3-9.7,9.7-9.7
				c0,0,0,0,0,0l365.4,0.3c5.3,0,9.7,4.3,9.7,9.7C455.8,235.8,451.4,240.1,446.1,240.1z"/>
		</g>
	</g>
</g>
</svg>
