<svg xmlns="http://www.w3.org/2000/svg" viewBox="0 0 100 118.44"><defs><style>.cls-1{fill:#646569;}</style></defs><g id="Lager_2" data-name="Lager 2"><g id="Lager_1-2" data-name="Lager 1"><path class="cls-1" d="M50,62.43c-14.18,0-25.68-22.24-25.68-36.75a25.68,25.68,0,0,1,51.36,0C75.68,40.19,64.18,62.43,50,62.43ZM50,4.34A21.36,21.36,0,0,0,28.66,25.68c0,12.21,10,32.41,21.34,32.41s21.34-20.2,21.34-32.41A21.36,21.36,0,0,0,50,4.34Z"/><path class="cls-1" d="M97.83,118.44a2.17,2.17,0,0,1-2.17-2.17C95.66,92.9,75.18,73.89,50,73.89S4.34,92.9,4.34,116.27a2.17,2.17,0,0,1-4.34,0C0,90.51,22.43,69.55,50,69.55s50,21,50,46.72A2.17,2.17,0,0,1,97.83,118.44Z"/></g></g></svg>