<?xml version="1.0" encoding="utf-8"?>
<!-- Generator: Adobe Illustrator 26.5.0, SVG Export Plug-In . SVG Version: 6.00 Build 0)  -->
<svg version="1.1" id="Lager_1" xmlns="http://www.w3.org/2000/svg" xmlns:xlink="http://www.w3.org/1999/xlink" x="0px" y="0px"
	 viewBox="0 0 708.7 708.7" style="enable-background:new 0 0 708.7 708.7;" xml:space="preserve">
<style type="text/css">
	.st0{fill:#64666A;}
</style>
<g>
	<path class="st0" d="M582.4,637.8H126.3c-30.6,0-55.4-24.9-55.4-55.4V260.9c0-3.9,1.9-7.5,5.2-9.6l272-178.6
		c3.8-2.5,8.8-2.5,12.6,0l272,178.6c3.2,2.1,5.2,5.7,5.2,9.6v321.5C637.8,612.9,612.9,637.8,582.4,637.8z M93.8,267.1v315.3
		c0,17.9,14.6,32.5,32.5,32.5h456.1c17.9,0,32.5-14.6,32.5-32.5V267.1L354.3,96L93.8,267.1z"/>
</g>
</svg>
