<svg xmlns="http://www.w3.org/2000/svg" viewBox="0 0 100 101.97"><defs><style>.cls-1{fill:#646569;}</style></defs><g id="Lager_2" data-name="Lager 2"><g id="Lager_1-2" data-name="Lager 1"><path class="cls-1" d="M98.1,19.19a1.76,1.76,0,0,1-.55-.09L51.83,3.41H2.8A1.71,1.71,0,1,1,2.8,0H52.12a1.71,1.71,0,0,1,.55.09l46,15.78a1.71,1.71,0,0,1-.55,3.32Z"/><path class="cls-1" d="M84.42,29.49a1.72,1.72,0,0,1-1.07-.37L51.05,3A1.71,1.71,0,1,1,53.19.38L83.55,24.9c.94-2.39,2.79-5.91,6.07-7.93a11.15,11.15,0,0,1,8.9-1.14,1.71,1.71,0,0,1-.84,3.31,7.81,7.81,0,0,0-6.26.73c-4,2.43-5.32,8.23-5.34,8.29A1.71,1.71,0,0,1,85,29.4,1.87,1.87,0,0,1,84.42,29.49Z"/><path class="cls-1" d="M98.29,102H1.71a1.69,1.69,0,0,1-1.22-.51A1.72,1.72,0,0,1,0,100.24l.13-12.6A1.72,1.72,0,0,1,1.86,86L7.93,86a1.69,1.69,0,0,1,1.4.76,4,4,0,1,0,.05-4.54A1.71,1.71,0,0,1,8,83L1.89,82.9A1.71,1.71,0,0,1,.21,81.17L.32,70.8a1.7,1.7,0,0,1,1.73-1.69l6.06.07a1.69,1.69,0,0,1,1.41.76,4,4,0,0,0,3.32,1.81h.05a4,4,0,0,0,2.89-6.87,4,4,0,0,0-6.21.52,1.74,1.74,0,0,1-1.4.73h0l-6.07-.07A1.71,1.71,0,0,1,.39,64.33L.51,54a1.69,1.69,0,0,1,1.71-1.69h0l6.07.06a1.71,1.71,0,0,1,1.4.77A4.1,4.1,0,0,0,13,54.91h0a4,4,0,0,0,0-8.09h0a4.07,4.07,0,0,0-3.32,1.73,1.73,1.73,0,0,1-1.41.73l-6.07-.06A1.72,1.72,0,0,1,.58,47.49L.69,37.12a1.74,1.74,0,0,1,1.73-1.69l6.07.06a1.7,1.7,0,0,1,1.4.77A4,4,0,1,0,13.3,30a4.09,4.09,0,0,0-3.36,1.73,1.64,1.64,0,0,1-1.42.73l-6.07-.06A1.71,1.71,0,0,1,.77,30.65L.88,20.27a1.71,1.71,0,0,1,1.71-1.68h0l6.06.06a1.7,1.7,0,0,1,1.41.77,4,4,0,0,0,3.32,1.8h0a4,4,0,0,0,0-8.08h-.05a4,4,0,0,0-3.31,1.73,1.72,1.72,0,0,1-1.42.73l-6.07-.07A1.71,1.71,0,0,1,1,13.81L1.09,1.69a1.71,1.71,0,1,1,3.41,0L4.39,12.14l3.53,0a7.46,7.46,0,1,1,5.53,12.46h-.09a7.47,7.47,0,0,1-5.55-2.58L4.28,22,4.2,29l3.53,0a7.47,7.47,0,0,1,5.53-2.46h.08a7.46,7.46,0,0,1,7.38,7.53,7.48,7.48,0,0,1-7.46,7.38h-.08A7.51,7.51,0,0,1,7.62,38.9l-3.53,0-.08,7,3.53,0a7.47,7.47,0,0,1,5.53-2.45h.09a7.46,7.46,0,0,1-.09,14.91H13a7.44,7.44,0,0,1-5.56-2.58l-3.53,0-.07,7,3.52,0A7.46,7.46,0,1,1,12.8,75.16a7.4,7.4,0,0,1-5.55-2.58l-3.53,0-.08,7,3.53,0A7.46,7.46,0,1,1,17.91,89.88,7.31,7.31,0,0,1,12.62,92a7.42,7.42,0,0,1-5.56-2.58l-3.53,0-.1,9.17H96.59V24.34a1.71,1.71,0,1,1,3.41,0v75.92A1.71,1.71,0,0,1,98.29,102Z"/></g></g></svg>