<?xml version="1.0" encoding="utf-8"?>
<!-- Generator: Adobe Illustrator 26.4.1, SVG Export Plug-In . SVG Version: 6.00 Build 0)  -->
<svg version="1.1" id="Lager_1" xmlns="http://www.w3.org/2000/svg" xmlns:xlink="http://www.w3.org/1999/xlink" x="0px" y="0px"
	 viewBox="0 0 113.4 113.4" style="enable-background:new 0 0 113.4 113.4;" xml:space="preserve">
<style type="text/css">
	.st0{fill:#64666A;}
</style>
<g>
	<g>
		<g>
			<path class="st0" d="M93.4,100.3H20c-3.9,0-7.1-3.2-7.1-7.1V37.1c0-3.9,3.2-7.1,7.1-7.1h73.4c3.9,0,7.1,3.2,7.1,7.1v56.2
				C100.4,97.1,97.3,100.3,93.4,100.3z M20,33.3c-2.1,0-3.8,1.7-3.8,3.8v56.2c0,2.1,1.7,3.8,3.8,3.8h73.4c2.1,0,3.8-1.7,3.8-3.8
				V37.1c0-2.1-1.7-3.8-3.8-3.8H20z"/>
		</g>
	</g>
	<g>
		<g>
			<path class="st0" d="M74.7,33.3c-0.9,0-1.6-0.7-1.6-1.6v-9.9c0-2.9-2.4-5.4-5.3-5.4H45.6c-2.9,0-5.3,2.4-5.3,5.4v9.9
				c0,0.9-0.7,1.6-1.6,1.6c-0.9,0-1.6-0.7-1.6-1.6v-9.9c0-4.8,3.9-8.6,8.6-8.6h22.1c4.8,0,8.6,3.9,8.6,8.6v9.9
				C76.4,32.5,75.6,33.3,74.7,33.3z"/>
		</g>
	</g>
	<g>
		<g>
			<path class="st0" d="M98.8,51.2H14.6c-0.9,0-1.6-0.7-1.6-1.6c0-0.9,0.7-1.6,1.6-1.6h84.2c0.9,0,1.6,0.7,1.6,1.6
				C100.4,50.5,99.7,51.2,98.8,51.2z"/>
		</g>
	</g>
	<g>
		<g>
			<path class="st0" d="M56.7,66.8c-0.4,0-0.8-0.1-1.1-0.4l-7.5-6.5c-0.4-0.3-0.6-0.8-0.6-1.2v-9.4c0-0.9,0.7-1.6,1.6-1.6h15.1
				c0.9,0,1.6,0.7,1.6,1.6v9.4c0,0.5-0.2,0.9-0.6,1.2l-7.5,6.5C57.5,66.6,57.1,66.8,56.7,66.8z M50.8,57.9l5.9,5.1l5.9-5.1v-7.1
				H50.8V57.9z"/>
		</g>
	</g>
</g>
</svg>
