<?xml version="1.0" encoding="utf-8"?>
<!-- Generator: Adobe Illustrator 26.3.1, SVG Export Plug-In . SVG Version: 6.00 Build 0)  -->
<svg version="1.1" xmlns="http://www.w3.org/2000/svg" xmlns:xlink="http://www.w3.org/1999/xlink" x="0px" y="0px"
	 viewBox="0 0 113.4 113.4" style="enable-background:new 0 0 113.4 113.4;" xml:space="preserve">
<style type="text/css">
	.st0{display:none;}
	.st1{display:inline;}
	.st2{fill:#636569;}
	.st3{fill:#64666A;}
</style>
<g id="Lager_1" class="st0">
	<g class="st1">
		<g>
			<g>
				<path class="st2" d="M56.7,57.6c-0.2,0-0.5,0-0.7-0.2L2.9,33.3c-0.6-0.3-1-0.9-1-1.5c0-0.7,0.4-1.3,1-1.5L56,6.2
					c0.4-0.2,1-0.2,1.4,0l53.1,24.1c0.6,0.3,1,0.9,1,1.5c0,0.7-0.4,1.3-1,1.5L63.7,54.6c-0.9,0.4-1.9,0-2.2-0.8
					c-0.4-0.9,0-1.9,0.8-2.2l43.4-19.7l-49-22.2l-49,22.2l49.7,22.6c0.9,0.4,1.2,1.4,0.8,2.2C57.9,57.2,57.3,57.6,56.7,57.6z"/>
			</g>
		</g>
		<g>
			<g>
				<path class="st2" d="M56.7,73.3c-0.2,0-0.5-0.1-0.7-0.2L2.9,49.1C2,48.7,1.6,47.7,2,46.8C2.4,46,3.4,45.6,4.3,46l52.4,23.8
					L109.1,46c0.9-0.4,1.9,0,2.2,0.8c0.4,0.9,0,1.9-0.8,2.2L57.4,73.2C57.2,73.3,56.9,73.3,56.7,73.3z"/>
			</g>
		</g>
		<g>
			<g>
				<path class="st2" d="M56.7,90.4c-0.2,0-0.5-0.1-0.7-0.2L2.9,66.1C2,65.7,1.6,64.7,2,63.9C2.4,63,3.4,62.6,4.3,63l52.4,23.8
					L109.1,63c0.9-0.4,1.9,0,2.2,0.8c0.4,0.9,0,1.9-0.8,2.2L57.4,90.2C57.2,90.3,56.9,90.4,56.7,90.4z"/>
			</g>
		</g>
		<g>
			<g>
				<path class="st2" d="M56.7,107.4c-0.2,0-0.5-0.1-0.7-0.2L2.9,83.1C2,82.7,1.6,81.7,2,80.9C2.4,80,3.4,79.7,4.3,80l52.4,23.8
					L109.1,80c0.9-0.4,1.9,0,2.2,0.8c0.4,0.9,0,1.9-0.8,2.2l-53.1,24.1C57.2,107.3,56.9,107.4,56.7,107.4z"/>
			</g>
		</g>
	</g>
</g>
<g id="Lager_2">
	<g>
		<g>
			<path class="st3" d="M56.7,64.8L56.7,64.8c-2.9,0-5.6-1.6-7-4.1c-1.1-1.9-1.3-4.1-0.8-6.2c0.6-2.1,1.9-3.8,3.8-4.9
				c1.2-0.7,2.6-1.1,4-1.1c2.9,0,5.6,1.6,7,4.1c2.2,3.9,0.9,8.8-3,11.1C59.5,64.4,58.1,64.8,56.7,64.8z M56.7,52
				c-0.8,0-1.6,0.2-2.3,0.6c-1.1,0.6-1.9,1.6-2.2,2.8c-0.3,1.2-0.2,2.5,0.4,3.5c0.8,1.4,2.4,2.3,4.1,2.3l0,0c0.8,0,1.6-0.2,2.3-0.6
				c2.2-1.3,3-4.1,1.7-6.4C59.9,52.9,58.4,52,56.7,52z"/>
		</g>
		<g>
			<path class="st3" d="M71.2,109.4c-2.5,0-5-0.5-7.2-1.4c-5-2.3-7.5-6.9-6.8-12.9c0.5-5,3-8.7,5.2-11.9c2.6-3.8,4.9-7.1,3.7-12.1
				c0-0.1,0-0.1,0-0.2c-0.3,0.2-0.7,0.4-1,0.6c-2.9,1.6-6.1,2.4-9.3,2.2c-1.7,4-5,9.3-11.1,14C40.5,91,25.4,100.6,10.6,87
				c-6-5.5-8.3-15.8-5.1-22.9c2.3-5,6.9-7.5,12.9-6.8c5,0.5,8.7,3,11.9,5.2c3.8,2.6,7.1,4.9,12.1,3.7c0.1,0,0.1,0,0.2,0
				c-0.2-0.3-0.4-0.7-0.6-1c-1.6-2.9-2.4-6.1-2.2-9.3c-4-1.7-9.3-5-14-11.1c-3.3-4.3-12.9-19.3,0.7-34.1c5.5-6,15.8-8.3,22.9-5.1
				c5,2.3,7.5,6.9,6.8,12.9c-0.5,5-3,8.7-5.2,11.9c-2.6,3.8-4.9,7.1-3.7,12.1c0,0.1,0,0.1,0,0.2c0.3-0.2,0.7-0.4,1-0.6
				c3.3-1.9,6.9-2.6,10.6-2.1c0.9,0.1,1.6,1,1.5,1.9c-0.1,0.9-1,1.6-1.9,1.5c-3-0.4-5.9,0.2-8.5,1.7c-0.9,0.5-1.7,1.1-2.5,1.8
				c-0.4,0.4-1,0.5-1.6,0.4c-0.6-0.1-1-0.6-1.2-1.1c-0.3-1-0.6-1.9-0.8-2.9c-1.5-6.5,1.4-10.7,4.2-14.8c2.1-3,4.2-6.1,4.7-10.3
				c0.5-4.5-1.2-7.7-4.8-9.4c-5.6-2.5-14.5-0.5-19,4.3c-11.8,12.8-3.4,26-0.5,29.7c4.6,6.1,10,9,13.7,10.4c0.7,0.3,1.2,1,1.1,1.8
				c-0.4,3,0.2,5.9,1.7,8.5c0.5,0.9,1.1,1.7,1.8,2.5c0.4,0.4,0.5,1,0.4,1.6c-0.1,0.6-0.6,1-1.1,1.2c-1,0.3-1.9,0.6-2.9,0.8
				c-6.5,1.5-10.7-1.4-14.8-4.2c-3-2.1-6.1-4.2-10.3-4.7c-4.5-0.5-7.7,1.2-9.4,4.8c-2.5,5.6-0.5,14.5,4.3,19
				c12.8,11.8,26,3.4,29.7,0.5c6.1-4.6,9-10,10.4-13.7c0.3-0.7,1-1.2,1.8-1.1c3,0.4,5.9-0.2,8.5-1.7c0.9-0.5,1.7-1.1,2.5-1.8
				c0.4-0.4,1-0.5,1.6-0.4c0.6,0.1,1,0.6,1.2,1.1c0.3,0.9,0.6,1.9,0.8,2.9c1.5,6.5-1.4,10.7-4.2,14.8c-2.1,3-4.2,6.1-4.7,10.3
				c-0.5,4.5,1.2,7.7,4.8,9.4c5.6,2.5,14.5,0.5,19-4.3c11.8-12.8,3.4-26,0.5-29.7c-4.6-6.1-10-9-13.7-10.4c-0.7-0.3-1.2-1-1.1-1.8
				c0.4-3-0.2-5.9-1.7-8.5c-0.5-0.9-1.1-1.7-1.8-2.5c-0.4-0.4-0.5-1-0.4-1.6c0.1-0.6,0.6-1,1.1-1.2c1-0.3,1.9-0.6,2.9-0.8
				c6.5-1.5,10.7,1.4,14.8,4.2c3,2.1,6.1,4.2,10.3,4.7c4.5,0.5,7.7-1.2,9.4-4.8c2.5-5.6,0.5-14.5-4.3-19c-12.8-11.8-26-3.4-29.7-0.5
				c-1.8,1.4-3.5,3-5,4.7c-0.6,0.7-1.7,0.8-2.4,0.2c-0.7-0.6-0.8-1.7-0.2-2.4c1.6-1.9,3.5-3.7,5.5-5.2c4.3-3.3,19.3-12.9,34.1,0.7
				c6,5.6,8.3,15.8,5.1,22.9c-2.3,5-6.9,7.5-12.9,6.8c-5-0.5-8.7-3-11.9-5.2c-3.8-2.6-7.1-4.9-12.1-3.7c-0.1,0-0.1,0-0.2,0
				c0.2,0.3,0.4,0.7,0.6,1c1.6,2.9,2.4,6.1,2.2,9.3c4,1.7,9.3,5,14,11.1C91,72.9,100.6,88,87,102.8C83.1,107,77,109.4,71.2,109.4z"
				/>
		</g>
	</g>
</g>
</svg>
