<svg xmlns="http://www.w3.org/2000/svg" viewBox="0 0 100 136.13"><defs><style>.cls-1{fill:#646569;}</style></defs><g id="Lager_2" data-name="Lager 2"><g id="Lager_1-2" data-name="Lager 1"><path class="cls-1" d="M83.16,136.13H16.84A11.77,11.77,0,0,1,5.09,124.37V37.25a2.43,2.43,0,0,1,2.43-2.43h85a2.42,2.42,0,0,1,2.43,2.43v87.12A11.77,11.77,0,0,1,83.16,136.13ZM10,39.67v84.7a6.9,6.9,0,0,0,6.89,6.9H83.16a6.91,6.91,0,0,0,6.9-6.9V39.67Z"/><path class="cls-1" d="M97.57,17.55H2.43a2.43,2.43,0,0,1,0-4.86H97.57a2.43,2.43,0,1,1,0,4.86Z"/><path class="cls-1" d="M68.76,17.55a2.43,2.43,0,0,1-2.43-2.43V11.75c0-3.8-2.67-6.89-5.94-6.89H39.61c-3.27,0-5.94,3.09-5.94,6.89v3.37a2.43,2.43,0,1,1-4.85,0V11.75C28.82,5.27,33.66,0,39.61,0H60.39c6,0,10.79,5.27,10.79,11.75v3.37A2.42,2.42,0,0,1,68.76,17.55Z"/><path class="cls-1" d="M19.94,120.23a2.42,2.42,0,0,1-2.42-2.43v-72a2.43,2.43,0,0,1,4.85,0v72A2.43,2.43,0,0,1,19.94,120.23Z"/><path class="cls-1" d="M83.41,120.23A2.43,2.43,0,0,1,81,117.8v-72a2.43,2.43,0,0,1,4.86,0v72A2.43,2.43,0,0,1,83.41,120.23Z"/><path class="cls-1" d="M51.68,120.23a2.43,2.43,0,0,1-2.43-2.43v-72a2.43,2.43,0,0,1,4.86,0v72A2.43,2.43,0,0,1,51.68,120.23Z"/></g></g></svg>