<?xml version="1.0" encoding="utf-8"?>
<!-- Generator: Adobe Illustrator 26.5.0, SVG Export Plug-In . SVG Version: 6.00 Build 0)  -->
<svg version="1.1" id="Lager_1" xmlns="http://www.w3.org/2000/svg" xmlns:xlink="http://www.w3.org/1999/xlink" x="0px" y="0px"
	 viewBox="0 0 708.7 708.7" style="enable-background:new 0 0 708.7 708.7;" xml:space="preserve">
<style type="text/css">
	.st0{fill:#636569;}
</style>
<path class="st0" d="M615.3,209.5v-45.7c0-4.6-3.7-8.3-8.3-8.3H106.7c-4.6,0-8.3,3.7-8.3,8.3v234.8c-15.8,3.8-27.6,17.9-27.6,34.8
	s11.8,31,27.6,34.8v76.7c0,4.6,3.7,8.3,8.3,8.3H607c4.6,0,8.3-3.7,8.3-8.3V276c13.2-5.3,22.5-18.2,22.5-33.2
	S628.4,214.8,615.3,209.5z M115,172.1h483.7v35.1c-18.2,1.7-32.6,16.9-32.6,35.5c0,10.9,5,20.5,12.6,27.1l-46.2,68.4
	c-17.6,26.1-40.2,41-61.8,40c-18.1-0.5-34.6-11.9-46.5-31.9c-14-23.6-32.6-35.7-52.4-34.1c-25.8,2.1-49.8,27.1-65.8,68.4
	c-17.9,46.1-39.2,63.6-53.2,64.6c-9,0.7-17.1-5.3-24-17.6c-15.7-28-38.2-46.3-60.2-48.8c-14.1-1.6-27.2,3.4-36.9,14.1l-8.1,8.9
	c-2.7-1.5-5.6-2.7-8.6-3.4V172.1z M98.4,450.8c-6.5-3.1-11-9.7-11-17.4s4.5-14.3,11-17.4c2.5-1.2,5.3-1.9,8.3-1.9
	c1.8,0,3.5,0.3,5.2,0.8c1.1,0.3,2.1,0.7,3.1,1.1c4.2,2,7.6,5.4,9.4,9.7c1,2.4,1.6,4.9,1.6,7.7c0,7.7-4.5,14.3-11,17.4
	c-2.5,1.2-5.3,1.9-8.3,1.9S101,452,98.4,450.8z M598.7,536.6H115v-68.4c15.8-3.8,27.6-17.9,27.6-34.8c0-7.6-2.4-14.7-6.5-20.5
	l7.9-8.7c6.3-6.9,13.9-9.8,22.8-8.8c16.4,1.9,34.7,17.4,47.6,40.4c9.5,16.9,22.6,26.1,37.1,26.1c0.8,0,1.6,0,2.5-0.1
	c25-1.8,49.6-29.1,67.5-75.1c13.5-34.7,32.8-56.4,51.7-57.9c16.9-1.4,29.4,13.4,36.8,26c14.9,25.1,36.2,39.3,60.2,40
	c27.5,0.7,55.2-16.4,76-47.3l47.2-70c1.7,0.4,3.4,0.6,5.2,0.8V536.6z M615.3,256.7c-3,2.9-6.9,4.7-11.2,5.2
	c-0.7,0.1-1.4,0.2-2.2,0.2c-1.1,0-2.2-0.1-3.2-0.3c-4.2-0.7-7.9-2.7-10.7-5.7c-3.3-3.5-5.4-8.1-5.4-13.3c0-9.5,7-17.4,16.1-19
	c1.1-0.2,2.1-0.3,3.2-0.3c5.2,0,9.9,2.1,13.3,5.4c3.7,3.5,6,8.4,6,13.9C621.2,248.2,618.9,253.1,615.3,256.7z"/>
</svg>
