<svg xmlns="http://www.w3.org/2000/svg" viewBox="0 0 100 116.95"><defs><style>.cls-1{fill:#646569;}</style></defs><g id="Lager_2" data-name="Lager 2"><g id="Lager_1-2" data-name="Lager 1"><path class="cls-1" d="M18.14,36.29A18.15,18.15,0,1,1,36.29,18.14,18.17,18.17,0,0,1,18.14,36.29Zm0-32.07A13.93,13.93,0,1,0,32.07,18.14,13.93,13.93,0,0,0,18.14,4.22Z"/><path class="cls-1" d="M81.86,76.62A18.15,18.15,0,1,1,100,58.47,18.17,18.17,0,0,1,81.86,76.62Zm0-32.07A13.93,13.93,0,1,0,95.78,58.47,13.94,13.94,0,0,0,81.86,44.55Z"/><path class="cls-1" d="M18.14,117A18.15,18.15,0,1,1,36.29,98.81,18.16,18.16,0,0,1,18.14,117Zm0-32.07A13.93,13.93,0,1,0,32.07,98.81,13.94,13.94,0,0,0,18.14,84.88Z"/><path class="cls-1" d="M68.31,52a2.12,2.12,0,0,1-1.13-.33L30.57,28.5a2.11,2.11,0,1,1,2.25-3.56L69.44,48.12A2.11,2.11,0,0,1,68.31,52Z"/><path class="cls-1" d="M31.7,92.33a2.1,2.1,0,0,1-1.13-3.88L67.18,65.27a2.11,2.11,0,1,1,2.26,3.56L32.82,92A2.1,2.1,0,0,1,31.7,92.33Z"/></g></g></svg>