<?xml version="1.0" encoding="utf-8"?>
<!-- Generator: Adobe Illustrator 26.5.0, SVG Export Plug-In . SVG Version: 6.00 Build 0)  -->
<svg version="1.1" id="Lager_1" xmlns="http://www.w3.org/2000/svg" xmlns:xlink="http://www.w3.org/1999/xlink" x="0px" y="0px"
	 viewBox="0 0 708.7 708.7" style="enable-background:new 0 0 708.7 708.7;" xml:space="preserve">
<style type="text/css">
	.st0{fill:#64666A;}
</style>
<g>
	<g>
		<g>
			<path class="st0" d="M238.5,588.9c-2.3,0-4.5-0.9-6.2-2.6c-3.4-3.4-3.4-9,0-12.4l313.5-313.5c3.4-3.4,9-3.4,12.4,0
				c3.4,3.4,3.4,9,0,12.4L244.7,586.3C243,588,240.7,588.9,238.5,588.9z"/>
		</g>
	</g>
	<g>
		<g>
			<path class="st0" d="M242.5,408.6c-2.3,0-4.5-0.9-6.2-2.6c-3.4-3.4-3.4-9,0-12.4l221.3-221.3c3.4-3.4,9-3.4,12.4,0
				c3.4,3.4,3.4,9,0,12.4L248.7,406C247,407.7,244.8,408.6,242.5,408.6z"/>
		</g>
	</g>
	<g>
		<g>
			<path class="st0" d="M374,540.1c-2.3,0-4.5-0.9-6.2-2.6c-3.4-3.4-3.4-9,0-12.4L587,305.9c3.4-3.4,9-3.4,12.4,0
				c3.4,3.4,3.4,9,0,12.4L380.3,537.5C378.5,539.3,376.3,540.1,374,540.1z"/>
		</g>
	</g>
	<g>
		<g>
			<path class="st0" d="M105.9,458.3c-2.3,0-4.5-0.9-6.2-2.6c-3.4-3.4-3.4-9,0-12.4L412.1,131c3.4-3.4,9-3.4,12.4,0
				c3.4,3.4,3.4,9,0,12.4L112.2,455.8C110.4,457.5,108.2,458.3,105.9,458.3z"/>
		</g>
	</g>
	<g>
		<g>
			<path class="st0" d="M172.7,616.1c-26.1,0-52.1-9.9-72-29.8c-19.2-19.2-29.8-44.8-29.8-72c0-27.2,10.6-52.8,29.8-72
				c3.4-3.4,9-3.4,12.4,0c3.4,3.4,3.4,9,0,12.4c-15.9,15.9-24.7,37.1-24.7,59.5c0,22.5,8.8,43.6,24.7,59.5
				c32.8,32.8,86.3,32.8,119.1,0c3.4-3.4,9-3.4,12.4,0c3.4,3.4,3.4,9,0,12.4C224.8,606.2,198.8,616.1,172.7,616.1z"/>
		</g>
	</g>
	<g>
		<g>
			<path class="st0" d="M592.8,321.3c-2.3,0-4.5-0.9-6.2-2.6c-3.4-3.4-3.4-9,0-12.4c44.8-44.8,44.8-117.7,0-162.5
				c-21.7-21.7-50.6-33.7-81.3-33.7c-30.7,0-59.5,12-81.2,33.7c-3.4,3.4-9,3.4-12.4,0c-3.4-3.4-3.4-9,0-12.4
				c25-25,58.3-38.8,93.7-38.8c35.4,0,68.7,13.8,93.7,38.8c51.7,51.7,51.7,135.7,0,187.4C597.3,320.5,595.1,321.3,592.8,321.3z"/>
		</g>
	</g>
	<g>
		<g>
			<path class="st0" d="M549.4,277.9c-2.3,0-4.5-0.9-6.2-2.6c-3.4-3.4-3.4-9,0-12.4c10.1-10.1,15.7-23.5,15.7-37.8
				c0-14.3-5.6-27.7-15.7-37.8c-20.9-20.9-54.8-20.9-75.7,0c-3.4,3.4-9,3.4-12.4,0c-3.4-3.4-3.4-9,0-12.4
				c27.7-27.7,72.8-27.7,100.6,0c13.4,13.4,20.8,31.3,20.8,50.3c0,19-7.4,36.9-20.8,50.3C553.9,277.1,551.7,277.9,549.4,277.9z"/>
		</g>
	</g>
</g>
</svg>
