<svg xmlns="http://www.w3.org/2000/svg" viewBox="0 0 100 140.82"><defs><style>.cls-1{fill:#646569;}</style></defs><g id="Lager_2" data-name="Lager 2"><g id="Lager_1-2" data-name="Lager 1"><path class="cls-1" d="M84,140.82H16A13.35,13.35,0,0,1,2.69,127.56L0,72.12V72A13.35,13.35,0,0,1,13.33,58.66H86.67A13.35,13.35,0,0,1,100,72v.12l-2.69,55.44A13.35,13.35,0,0,1,84,140.82ZM5.12,71.94l2.69,55.43v.12A8.23,8.23,0,0,0,16,135.71H84a8.23,8.23,0,0,0,8.22-8.22v-.12l2.69-55.43a8.22,8.22,0,0,0-8.21-8.16H13.33A8.22,8.22,0,0,0,5.12,71.94Z"/><path class="cls-1" d="M86.86,63.78a2.56,2.56,0,0,1-2.56-2.56V40.87c0-13.35-4.18-35.75-32.2-35.75S19.91,27.52,19.91,40.87V61.22a2.56,2.56,0,1,1-5.12,0V40.87C14.79,14.9,28.39,0,52.1,0S89.41,14.9,89.41,40.87V61.22A2.56,2.56,0,0,1,86.86,63.78Z"/></g></g></svg>