<?xml version="1.0" encoding="utf-8"?>
<!-- Generator: Adobe Illustrator 26.3.1, SVG Export Plug-In . SVG Version: 6.00 Build 0)  -->
<svg version="1.1" xmlns="http://www.w3.org/2000/svg" xmlns:xlink="http://www.w3.org/1999/xlink" x="0px" y="0px"
	 viewBox="0 0 113.4 113.4" style="enable-background:new 0 0 113.4 113.4;" xml:space="preserve">
<style type="text/css">
	.st0{display:none;}
	.st1{display:inline;}
	.st2{fill:#636569;}
	.st3{fill:#64666A;}
</style>
<g id="Lager_1" class="st0">
	<g class="st1">
		<g>
			<g>
				<path class="st2" d="M56.7,57.6c-0.2,0-0.5,0-0.7-0.2L2.9,33.3c-0.6-0.3-1-0.9-1-1.5c0-0.7,0.4-1.3,1-1.5L56,6.2
					c0.4-0.2,1-0.2,1.4,0l53.1,24.1c0.6,0.3,1,0.9,1,1.5c0,0.7-0.4,1.3-1,1.5L63.7,54.6c-0.9,0.4-1.9,0-2.2-0.8
					c-0.4-0.9,0-1.9,0.8-2.2l43.4-19.7l-49-22.2l-49,22.2l49.7,22.6c0.9,0.4,1.2,1.4,0.8,2.2C57.9,57.2,57.3,57.6,56.7,57.6z"/>
			</g>
		</g>
		<g>
			<g>
				<path class="st2" d="M56.7,73.3c-0.2,0-0.5-0.1-0.7-0.2L2.9,49.1C2,48.7,1.6,47.7,2,46.8C2.4,46,3.4,45.6,4.3,46l52.4,23.8
					L109.1,46c0.9-0.4,1.9,0,2.2,0.8c0.4,0.9,0,1.9-0.8,2.2L57.4,73.2C57.2,73.3,56.9,73.3,56.7,73.3z"/>
			</g>
		</g>
		<g>
			<g>
				<path class="st2" d="M56.7,90.4c-0.2,0-0.5-0.1-0.7-0.2L2.9,66.1C2,65.7,1.6,64.7,2,63.9C2.4,63,3.4,62.6,4.3,63l52.4,23.8
					L109.1,63c0.9-0.4,1.9,0,2.2,0.8c0.4,0.9,0,1.9-0.8,2.2L57.4,90.2C57.2,90.3,56.9,90.4,56.7,90.4z"/>
			</g>
		</g>
		<g>
			<g>
				<path class="st2" d="M56.7,107.4c-0.2,0-0.5-0.1-0.7-0.2L2.9,83.1C2,82.7,1.6,81.7,2,80.9C2.4,80,3.4,79.7,4.3,80l52.4,23.8
					L109.1,80c0.9-0.4,1.9,0,2.2,0.8c0.4,0.9,0,1.9-0.8,2.2l-53.1,24.1C57.2,107.3,56.9,107.4,56.7,107.4z"/>
			</g>
		</g>
	</g>
</g>
<g id="Lager_2" class="st0">
	<g class="st1">
		<g>
			<path class="st3" d="M56.7,64.8L56.7,64.8c-2.9,0-5.6-1.6-7-4.1c-1.1-1.9-1.3-4.1-0.8-6.2c0.6-2.1,1.9-3.8,3.8-4.9
				c1.2-0.7,2.6-1.1,4-1.1c2.9,0,5.6,1.6,7,4.1c2.2,3.9,0.9,8.8-3,11.1C59.5,64.4,58.1,64.8,56.7,64.8z M56.7,52
				c-0.8,0-1.6,0.2-2.3,0.6c-1.1,0.6-1.9,1.6-2.2,2.8c-0.3,1.2-0.2,2.5,0.4,3.5c0.8,1.4,2.4,2.3,4.1,2.3l0,0c0.8,0,1.6-0.2,2.3-0.6
				c2.2-1.3,3-4.1,1.7-6.4C59.9,52.9,58.4,52,56.7,52z"/>
		</g>
		<g>
			<path class="st3" d="M71.2,109.4c-2.5,0-5-0.5-7.2-1.4c-5-2.3-7.5-6.9-6.8-12.9c0.5-5,3-8.7,5.2-11.9c2.6-3.8,4.9-7.1,3.7-12.1
				c0-0.1,0-0.1,0-0.2c-0.3,0.2-0.7,0.4-1,0.6c-2.9,1.6-6.1,2.4-9.3,2.2c-1.7,4-5,9.3-11.1,14C40.5,91,25.4,100.6,10.6,87
				c-6-5.5-8.3-15.8-5.1-22.9c2.3-5,6.9-7.5,12.9-6.8c5,0.5,8.7,3,11.9,5.2c3.8,2.6,7.1,4.9,12.1,3.7c0.1,0,0.1,0,0.2,0
				c-0.2-0.3-0.4-0.7-0.6-1c-1.6-2.9-2.4-6.1-2.2-9.3c-4-1.7-9.3-5-14-11.1c-3.3-4.3-12.9-19.3,0.7-34.1c5.5-6,15.8-8.3,22.9-5.1
				c5,2.3,7.5,6.9,6.8,12.9c-0.5,5-3,8.7-5.2,11.9c-2.6,3.8-4.9,7.1-3.7,12.1c0,0.1,0,0.1,0,0.2c0.3-0.2,0.7-0.4,1-0.6
				c3.3-1.9,6.9-2.6,10.6-2.1c0.9,0.1,1.6,1,1.5,1.9c-0.1,0.9-1,1.6-1.9,1.5c-3-0.4-5.9,0.2-8.5,1.7c-0.9,0.5-1.7,1.1-2.5,1.8
				c-0.4,0.4-1,0.5-1.6,0.4c-0.6-0.1-1-0.6-1.2-1.1c-0.3-1-0.6-1.9-0.8-2.9c-1.5-6.5,1.4-10.7,4.2-14.8c2.1-3,4.2-6.1,4.7-10.3
				c0.5-4.5-1.2-7.7-4.8-9.4c-5.6-2.5-14.5-0.5-19,4.3c-11.8,12.8-3.4,26-0.5,29.7c4.6,6.1,10,9,13.7,10.4c0.7,0.3,1.2,1,1.1,1.8
				c-0.4,3,0.2,5.9,1.7,8.5c0.5,0.9,1.1,1.7,1.8,2.5c0.4,0.4,0.5,1,0.4,1.6c-0.1,0.6-0.6,1-1.1,1.2c-1,0.3-1.9,0.6-2.9,0.8
				c-6.5,1.5-10.7-1.4-14.8-4.2c-3-2.1-6.1-4.2-10.3-4.7c-4.5-0.5-7.7,1.2-9.4,4.8c-2.5,5.6-0.5,14.5,4.3,19
				c12.8,11.8,26,3.4,29.7,0.5c6.1-4.6,9-10,10.4-13.7c0.3-0.7,1-1.2,1.8-1.1c3,0.4,5.9-0.2,8.5-1.7c0.9-0.5,1.7-1.1,2.5-1.8
				c0.4-0.4,1-0.5,1.6-0.4c0.6,0.1,1,0.6,1.2,1.1c0.3,0.9,0.6,1.9,0.8,2.9c1.5,6.5-1.4,10.7-4.2,14.8c-2.1,3-4.2,6.1-4.7,10.3
				c-0.5,4.5,1.2,7.7,4.8,9.4c5.6,2.5,14.5,0.5,19-4.3c11.8-12.8,3.4-26,0.5-29.7c-4.6-6.1-10-9-13.7-10.4c-0.7-0.3-1.2-1-1.1-1.8
				c0.4-3-0.2-5.9-1.7-8.5c-0.5-0.9-1.1-1.7-1.8-2.5c-0.4-0.4-0.5-1-0.4-1.6c0.1-0.6,0.6-1,1.1-1.2c1-0.3,1.9-0.6,2.9-0.8
				c6.5-1.5,10.7,1.4,14.8,4.2c3,2.1,6.1,4.2,10.3,4.7c4.5,0.5,7.7-1.2,9.4-4.8c2.5-5.6,0.5-14.5-4.3-19c-12.8-11.8-26-3.4-29.7-0.5
				c-1.8,1.4-3.5,3-5,4.7c-0.6,0.7-1.7,0.8-2.4,0.2c-0.7-0.6-0.8-1.7-0.2-2.4c1.6-1.9,3.5-3.7,5.5-5.2c4.3-3.3,19.3-12.9,34.1,0.7
				c6,5.6,8.3,15.8,5.1,22.9c-2.3,5-6.9,7.5-12.9,6.8c-5-0.5-8.7-3-11.9-5.2c-3.8-2.6-7.1-4.9-12.1-3.7c-0.1,0-0.1,0-0.2,0
				c0.2,0.3,0.4,0.7,0.6,1c1.6,2.9,2.4,6.1,2.2,9.3c4,1.7,9.3,5,14,11.1C91,72.9,100.6,88,87,102.8C83.1,107,77,109.4,71.2,109.4z"
				/>
		</g>
	</g>
</g>
<g id="Lager_3" class="st0">
	<g class="st1">
		<g>
			<g>
				<path class="st2" d="M53.9,106.8c-27.6,0-50.1-22.5-50.1-50.1c0-27.6,22.5-50.1,50.1-50.1c16.7,0,32.2,8.3,41.5,22.1
					c0.6,0.9,0.4,2.1-0.5,2.7c-0.9,0.6-2.1,0.4-2.7-0.5c-8.6-12.8-22.9-20.4-38.3-20.4c-25.5,0-46.2,20.7-46.2,46.2
					c0,25.5,20.7,46.2,46.2,46.2c25.5,0,46.2-20.7,46.2-46.2c0-4.2-0.6-8.3-1.7-12.3c-0.3-1,0.3-2.1,1.4-2.4c1-0.3,2.1,0.3,2.4,1.4
					c1.2,4.3,1.8,8.8,1.8,13.4C104,84.3,81.5,106.8,53.9,106.8z"/>
			</g>
		</g>
		<g>
			<g>
				<path class="st2" d="M51.3,89.9c-0.6,0-1.2-0.3-1.6-0.8l-26-35.2c-0.6-0.9-0.5-2.1,0.4-2.7c0.9-0.6,2.1-0.5,2.7,0.4l24.4,33.1
					l54.8-74.9c0.6-0.9,1.8-1.1,2.7-0.4c0.9,0.6,1.1,1.8,0.4,2.7L52.9,89.1C52.5,89.6,51.9,89.9,51.3,89.9
					C51.3,89.9,51.3,89.9,51.3,89.9z"/>
			</g>
		</g>
	</g>
</g>
<g id="Lager_4" class="st0">
	<g class="st1">
		<g>
			<g>
				<g>
					<path class="st2" d="M84.9,68.9c-0.6,0-1.2,0-1.9-0.1c-5.5-0.8-9.8-4.9-10.9-10.3c-0.2-1,0.4-1.9,1.4-2.1
						c1-0.2,1.9,0.4,2.1,1.4c0.8,3.9,3.9,6.9,7.9,7.5c2.5,0.4,4.9-0.3,6.9-1.8c2-1.5,3.3-3.7,3.6-6.2c0.7-5.1-2.8-9.9-7.9-10.6
						c-3.9-0.6-7.8,1.4-9.6,4.9c-0.5,0.9-1.6,1.2-2.5,0.8c-0.9-0.5-1.2-1.6-0.8-2.5c2.5-4.9,7.9-7.6,13.3-6.8c7.1,1,12,7.6,11,14.7
						c-0.5,3.4-2.3,6.5-5.1,8.6C90.4,68,87.7,68.9,84.9,68.9z"/>
				</g>
			</g>
			<g>
				<path class="st2" d="M85,99.7c-0.6,0-1.2-0.3-1.5-0.8c-0.8-1.3-19.8-31.1-19.8-42.3c0-11.8,9.6-21.4,21.3-21.4
					c10,0,18.5,6.8,20.8,16.5c0.4,1.6,0.5,3.2,0.5,4.8c0,1-0.1,2.2-0.4,3.6c-0.8,3.6-2.7,8.5-5.6,14.5
					c-5.7,11.7-13.6,24.1-13.7,24.2C86.2,99.3,85.6,99.7,85,99.7z M85,38.8c-9.8,0-17.7,8-17.7,17.7c0,7.7,11.6,28.1,17.7,37.9
					c2.6-4.2,7.9-13,12-21.4c2.8-5.8,4.6-10.4,5.4-13.7c0.2-1.1,0.4-2,0.4-2.8c0-1.4-0.2-2.7-0.5-4C100.3,44.4,93.3,38.8,85,38.8z"
					/>
			</g>
		</g>
		<g>
			<g>
				<path class="st2" d="M33,86.2c-0.3,0-0.7-0.1-1-0.3c-0.5-0.3-0.8-0.9-0.8-1.5V26.3c0-0.7,0.4-1.4,1.1-1.7l24.4-10.8
					c0.6-0.2,1.2-0.2,1.7,0.1c0.5,0.3,0.8,0.9,0.8,1.5v58.1c0,0.7-0.4,1.4-1.1,1.7L33.8,86C33.5,86.1,33.3,86.2,33,86.2z M34.9,27.5
					v54.1l20.7-9.2V18.3L34.9,27.5z"/>
			</g>
			<g>
				<path class="st2" d="M33.3,86.2c-0.2,0-0.5-0.1-0.7-0.2L8.2,75.3c-0.7-0.3-1.1-0.9-1.1-1.7V15.5c0-0.6,0.3-1.2,0.8-1.5
					c0.5-0.3,1.2-0.4,1.7-0.1L34,24.6c0.7,0.3,1.1,0.9,1.1,1.7v58.1c0,0.6-0.3,1.2-0.8,1.5C34,86.1,33.6,86.2,33.3,86.2z M10.7,72.4
					l20.7,9.2V27.5l-20.7-9.2V72.4z"/>
			</g>
			<g>
				<path class="st2" d="M66.5,79.4c-0.2,0-0.5,0-0.7-0.2l-9.1-4c-0.7-0.3-1.1-0.9-1.1-1.7V15.5c0-0.6,0.3-1.2,0.8-1.5
					c0.5-0.3,1.2-0.4,1.7-0.1l24.4,10.8c0.7,0.3,1.1,0.9,1.1,1.7v11c0,1-0.8,1.8-1.8,1.8c-1,0-1.8-0.8-1.8-1.8v-9.8l-20.7-9.2v54.1
					l8,3.5c0.9,0.4,1.3,1.5,0.9,2.4C67.8,79,67.2,79.4,66.5,79.4z"/>
			</g>
		</g>
	</g>
</g>
<g id="Lager_5" class="st0">
	<g class="st1">
		<g>
			<path class="st2" d="M56.7,106.3c-0.5,0-0.9-0.2-1.3-0.5c-1.4-1.4-34.8-34.9-34.8-62.6c0-19.9,16.2-36.1,36.1-36.1
				c19.9,0,36.1,16.2,36.1,36.1c0,28.5-33.4,61.3-34.8,62.6C57.6,106.1,57.2,106.3,56.7,106.3z M56.7,10.8
				c-17.9,0-32.4,14.5-32.4,32.4c0,23.3,26.2,52.2,32.4,58.7c6.2-6.4,32.4-34.8,32.4-58.7C89.1,25.3,74.6,10.8,56.7,10.8z"/>
		</g>
		<g>
			<path class="st2" d="M56.7,60.1c-9.9,0-17.9-8-17.9-17.9c0-9.9,8-17.9,17.9-17.9c9.9,0,17.9,8,17.9,17.9
				C74.6,52.1,66.5,60.1,56.7,60.1z M56.7,28.1c-7.8,0-14.2,6.4-14.2,14.2s6.4,14.2,14.2,14.2c7.8,0,14.2-6.4,14.2-14.2
				S64.5,28.1,56.7,28.1z"/>
		</g>
	</g>
</g>
<g id="Lager_6" class="st0">
	<g class="st1">
		<g>
			<path class="st3" d="M106.3,56.7c0,1.8-1.4,3.2-3.2,3.2H10.3c-1.8,0-3.2-1.4-3.2-3.2s1.4-3.2,3.2-3.2h92.8
				C104.9,53.5,106.3,54.9,106.3,56.7z"/>
		</g>
		<g>
			<path class="st3" d="M59.9,103.1c0,1.8-1.4,3.2-3.2,3.2s-3.2-1.4-3.2-3.2l0-92.8c0-1.8,1.4-3.2,3.2-3.2c1.8,0,3.2,1.4,3.2,3.2
				L59.9,103.1z"/>
		</g>
	</g>
</g>
<g id="Lager_7" class="st0">
	<g class="st1">
		<g>
			<path class="st2" d="M104.2,107H18.7c-3.6,0-6.5-1.1-8.6-3.3c-3.1-3.3-3.1-7.8-3.1-8.4V16.8c0-1.1,0.9-2.1,2.1-2.1
				c1.1,0,2.1,0.9,2.1,2.1v78.5c0,0,0,0.1,0,0.1c0,0-0.1,3.3,1.9,5.4c1.2,1.3,3.1,2,5.6,2h83.4V27.2H17.5c-1.1,0-2.1-0.9-2.1-2.1
				c0-1.1,0.9-2.1,2.1-2.1h86.7c1.1,0,2.1,0.9,2.1,2.1v79.7C106.3,106,105.4,107,104.2,107z"/>
		</g>
		<g>
			<path class="st2" d="M85.2,27.2H37.6c-1.1,0-2.1-0.9-2.1-2.1c0-1.1,0.9-2.1,2.1-2.1h45.5V10.6H18.4c-1.1,0-2.1-0.9-2.1-2.1
				c0-1.1,0.9-2.1,2.1-2.1h66.8c1.1,0,2.1,0.9,2.1,2.1v16.7C87.2,26.3,86.3,27.2,85.2,27.2z"/>
		</g>
		<g>
			<path class="st2" d="M17.5,27.2c-5.7,0-10.4-4.7-10.4-10.4c0-5.7,4.7-10.4,10.4-10.4c1.1,0,2.1,0.9,2.1,2.1
				c0,1.1-0.9,2.1-2.1,2.1c-3.5,0-6.3,2.8-6.3,6.3c0,3.5,2.8,6.3,6.3,6.3c1.1,0,2.1,0.9,2.1,2.1C19.6,26.3,18.6,27.2,17.5,27.2z"/>
		</g>
		<g>
			<path class="st2" d="M90.8,71.5c-4,0-7.2-3.2-7.2-7.2s3.2-7.2,7.2-7.2c4,0,7.2,3.2,7.2,7.2S94.7,71.5,90.8,71.5z M90.8,61.3
				c-1.7,0-3,1.4-3,3c0,1.7,1.4,3,3,3c1.7,0,3-1.4,3-3C93.8,62.7,92.4,61.3,90.8,61.3z"/>
		</g>
	</g>
</g>
<g id="Lager_8" class="st0">
	<g class="st1">
		<g>
			<path class="st2" d="M56.7,106.3c-0.2,0-0.4,0-0.7-0.1c-0.4-0.2-10-4.1-19.7-12C23.3,83.6,16.4,71,16.4,57.7V24
				c0-4.3,3.7-7.7,8.2-7.7c0,0,0.1,0,0.1,0c0,0,0.6,0,1.6,0c4.9,0,17.6-0.9,29.4-9c0.6-0.4,1.4-0.4,2,0c11.8,8.1,24.5,9,29.4,9
				c1,0,1.6,0,1.6,0c0,0,0.1,0,0.1,0c4.5,0,8.2,3.5,8.2,7.7v33.7c0,13.3-6.9,25.9-19.9,36.5c-9.7,7.9-19.3,11.8-19.7,12
				C57.1,106.3,56.9,106.3,56.7,106.3z M24.5,19.8c-2.6,0-4.7,1.9-4.7,4.3v33.7c0,27.4,31.9,42.8,36.9,45c5-2.2,36.9-17.6,36.9-45
				V24c0-2.3-2.1-4.2-4.7-4.3c-0.2,0-0.8,0-1.8,0c-5.1,0-18.1-0.9-30.4-8.9c-12.3,8-25.3,8.9-30.4,8.9
				C25.4,19.8,24.7,19.8,24.5,19.8z"/>
		</g>
	</g>
</g>
<g id="Lager_9" class="st0">
	<g class="st1">
		<g>
			<g>
				<path class="st2" d="M25.2,21.1c-0.5,0-0.9-0.2-1.2-0.6c-0.6-0.7-0.5-1.7,0.2-2.3c9-7.9,20.6-12.2,32.6-12.2
					c8.9,0,17.6,2.4,25.1,6.8c1.2,0.7,2.3,1.4,3.5,2.2c0.7,0.5,0.9,1.6,0.4,2.3c-0.5,0.7-1.6,0.9-2.3,0.4c-1-0.7-2.1-1.4-3.2-2.1
					C73.1,11.6,65,9.4,56.7,9.4c-11.2,0-22,4-30.4,11.4C26,21,25.6,21.1,25.2,21.1z"/>
			</g>
		</g>
		<g>
			<g>
				<path class="st2" d="M102.4,71.9c-0.2,0-0.3,0-0.5-0.1c-0.9-0.3-1.3-1.2-1.1-2.1c1.5-4.5,2.2-9.3,2.2-14.1
					c0-12.2-4.7-23.7-13.3-32.5c-0.6-0.7-0.6-1.7,0-2.3c0.7-0.6,1.7-0.6,2.3,0c9.2,9.3,14.2,21.7,14.2,34.8c0,5.2-0.8,10.2-2.3,15.1
					C103.7,71.5,103.1,71.9,102.4,71.9z"/>
			</g>
		</g>
		<g>
			<g>
				<path class="st2" d="M18.8,56.7c-0.9,0-1.7-0.7-1.7-1.7c0-14.8,7-27.8,18.7-34.8c0.8-0.5,1.8-0.2,2.3,0.6
					c0.5,0.8,0.2,1.8-0.6,2.3c-10.7,6.4-17.1,18.4-17.1,32C20.5,56,19.7,56.7,18.8,56.7z"/>
			</g>
		</g>
		<g>
			<g>
				<path class="st2" d="M71.6,21.5c-0.2,0-0.4,0-0.6-0.1c-1.6-0.7-3.3-1.3-5-1.7c-3-0.8-6.1-1.2-9.3-1.2c-4.3,0-8.5,0.7-12.5,2.2
					c-0.9,0.3-1.8-0.1-2.1-1c-0.3-0.9,0.1-1.8,1-2.1c4.4-1.6,9-2.4,13.6-2.4c3.4,0,6.8,0.4,10.1,1.3c1.9,0.5,3.7,1.1,5.5,1.9
					c0.8,0.4,1.2,1.3,0.9,2.2C72.9,21.1,72.2,21.5,71.6,21.5z"/>
			</g>
		</g>
		<g>
			<g>
				<path class="st2" d="M30.8,101.5c-0.5,0-0.9-0.2-1.3-0.6c-0.6-0.7-0.5-1.7,0.2-2.3c4.7-3.8,6.8-9.8,7.7-14.2
					c0.2-0.9,1.1-1.5,2-1.3c0.9,0.2,1.5,1.1,1.3,2c-1.5,7-4.6,12.5-8.8,16C31.6,101.4,31.2,101.5,30.8,101.5z"/>
			</g>
		</g>
		<g>
			<g>
				<path class="st2" d="M39.4,78.8C39.4,78.8,39.4,78.8,39.4,78.8c-1,0-1.7-0.8-1.7-1.7c0.1-2.5-0.1-4.8-0.4-6.4
					c-1.2-4.6-2.3-9.7-1.9-16.8c0.4-10.2,9.4-21.5,21.6-21.5c11.2,0,20.5,8.4,21.5,19.5c0.1,0.9-0.6,1.7-1.5,1.8
					c-0.9,0.1-1.7-0.6-1.8-1.5c-0.9-9.4-8.7-16.6-18.2-16.6c-10,0-17.9,9.7-18.3,18.4c-0.3,6.7,0.7,11.3,1.9,15.9c0,0,0,0,0,0.1
					c0.4,1.8,0.6,4.5,0.5,7.2C41,78.1,40.3,78.8,39.4,78.8z"/>
			</g>
		</g>
		<g>
			<g>
				<path class="st2" d="M59.1,107.3c-0.2,0-0.5,0-0.7-0.2c-0.8-0.4-1.2-1.4-0.8-2.2c3-6.5,6.9-16.7,8.4-23.6c0.2-0.9,1.1-1.5,2-1.3
					c0.9,0.2,1.5,1.1,1.3,2c-1.5,7.2-5.6,17.6-8.6,24.3C60.4,107,59.8,107.3,59.1,107.3z"/>
			</g>
		</g>
		<g>
			<g>
				<path class="st2" d="M67.1,75.5c-0.1,0-0.1,0-0.2,0c-0.9-0.1-1.6-0.9-1.5-1.8c1.2-11,0.2-18.7,0.1-18.7c0-0.1,0-0.1,0-0.2
					c0-4.8-3.9-8.7-8.7-8.7c-4.8,0-8.7,3.9-8.7,8.7c0,0.9-0.7,1.7-1.7,1.7c-0.9,0-1.7-0.7-1.7-1.7c0-6.6,5.4-12,12-12
					c6.6,0,12,5.3,12,11.9c0.1,1,1,8.6-0.2,19.4C68.7,74.9,67.9,75.5,67.1,75.5z"/>
			</g>
		</g>
		<g>
			<g>
				<path class="st2" d="M79.6,101.5c-0.9,0-1.6-0.7-1.6-1.6c-0.4-7.1,4.7-15.6,9.5-23c4.1-6.3,6.3-13.7,6.5-21.9c0,0,0-0.1,0-0.1
					c0.9-10-5.7-22.9-15.4-30c-0.7-0.5-0.9-1.6-0.4-2.3c0.5-0.7,1.6-0.9,2.3-0.4c10.5,7.7,17.7,21.8,16.7,32.9
					C97,64,94.6,71.9,90.2,78.7c-3.5,5.4-9.4,14.4-9,21C81.3,100.7,80.6,101.4,79.6,101.5C79.7,101.5,79.6,101.5,79.6,101.5z"/>
			</g>
		</g>
		<g>
			<g>
				<path class="st2" d="M50.5,107.3c-0.2,0-0.5,0-0.7-0.1c-0.8-0.4-1.2-1.4-0.8-2.2c5.3-11.6,6.6-20.6,7.2-32.4
					c0-0.9,0.8-1.6,1.7-1.6c0.9,0,1.6,0.8,1.6,1.7c-0.6,12.1-2,21.5-7.4,33.6C51.7,107,51.1,107.3,50.5,107.3z"/>
			</g>
		</g>
		<g>
			<g>
				<path class="st2" d="M57.4,66.8c0,0-0.1,0-0.1,0c-0.9-0.1-1.6-0.9-1.5-1.8c0.5-6.4-0.8-12-0.8-12.1c-0.2-0.9,0.3-1.8,1.2-2
					c0.9-0.2,1.8,0.3,2,1.2c0.1,0.2,1.4,6.1,0.9,13.1C59,66.1,58.3,66.8,57.4,66.8z"/>
			</g>
		</g>
		<g>
			<g>
				<path class="st2" d="M73.1,77.4c-0.2,0-0.4,0-0.7-0.1c-0.8-0.4-1.2-1.3-0.9-2.2c0-0.1,0.1-0.2,0.1-0.3
					c2.4-4.9,3.3-10.7,3.6-14.7c0.1-0.9,0.9-1.6,1.8-1.5c0.9,0.1,1.6,0.9,1.5,1.8c-0.4,4.3-1.3,10.5-4,15.8l-0.1,0.2
					C74.3,77,73.7,77.4,73.1,77.4z"/>
			</g>
		</g>
		<g>
			<g>
				<path class="st2" d="M39.7,105.3c-0.4,0-0.8-0.1-1.1-0.4c-0.7-0.6-0.8-1.6-0.2-2.3c0.9-1.1,6.4-9,7.5-17.3c1-7.5,0-22.5,0-22.7
					c-0.1-0.9,0.6-1.7,1.5-1.8c0.9-0.1,1.7,0.6,1.8,1.5c0,0.6,1.1,15.5,0,23.3c-1.3,9.2-7.1,17.7-8.2,19
					C40.6,105.1,40.1,105.3,39.7,105.3z"/>
			</g>
		</g>
		<g>
			<g>
				<path class="st2" d="M70.8,106.5c-0.8,0-1.6-0.6-1.6-1.5c-0.8-7.6,3.1-16.1,7.3-25.1c4.1-8.7,8.3-17.7,7.9-26c0,0,0,0,0-0.1
					c0-12.6-12-27.3-27.3-27.3c-6.2,0-12.5,2.2-17.7,6.1c-0.7,0.6-1.8,0.4-2.3-0.3c-0.6-0.7-0.4-1.8,0.3-2.3
					c5.8-4.4,12.8-6.8,19.7-6.8c17.4,0,30.5,16.1,30.6,30.6c0.4,9-4,18.4-8.2,27.5c-4,8.5-7.7,16.6-7,23.3c0.1,0.9-0.6,1.7-1.5,1.8
					C70.9,106.5,70.9,106.5,70.8,106.5z"/>
			</g>
		</g>
		<g>
			<g>
				<path class="st2" d="M24.2,95.8c-0.6,0-1.2-0.3-1.5-0.9c-0.4-0.8,0-1.8,0.8-2.2c7.8-3.7,7.2-9.3,4.9-22.7
					c-0.5-3.2-1.2-6.9-1.7-10.9c-1.3-10.2,0-16.8,4.5-22.8c0.5-0.7,1.6-0.9,2.3-0.3c0.7,0.5,0.9,1.6,0.3,2.3
					C31,42,28.5,47.2,30,58.6c0.5,4,1.1,7.6,1.7,10.8c2.2,12.8,3.6,21.3-6.8,26.2C24.7,95.7,24.4,95.8,24.2,95.8z"/>
			</g>
		</g>
		<g>
			<g>
				<path class="st2" d="M87.6,95c-0.4,0-0.9-0.2-1.2-0.5c-0.6-0.7-0.6-1.7,0-2.3c2.5-2.4,8.5-8.6,11.3-15.6
					c0.3-0.8,1.3-1.3,2.1-0.9c0.8,0.3,1.3,1.3,0.9,2.1c-3,7.6-9.4,14.3-12.1,16.8C88.5,94.8,88,95,87.6,95z"/>
			</g>
		</g>
		<g>
			<g>
				<path class="st2" d="M20.5,87.5c-0.4,0-0.7,0-1-0.1c-2.8-0.6-5.3-3.6-7.5-9.2c-2.2-5.3-3.9-12.4-4.6-17.1c0-0.1,0-0.1,0-0.2
					l-0.3-5.3c0,0,0-0.1,0-0.1c0-4,0.5-8.1,1.5-12c1.6-6.3,4.3-12.1,8.1-17.4c0.5-0.7,1.6-0.9,2.3-0.4c0.7,0.5,0.9,1.6,0.4,2.3
					c-3.6,4.9-6.2,10.3-7.6,16.2c-0.9,3.6-1.4,7.4-1.4,11.1l0.3,5.2C11.3,65.2,12.9,72,15,77c2.5,6,4.4,7,5.2,7.2
					c0.2,0.1,1,0.2,2.1-0.9c1.3-1.2,0.6-3.1-1.2-7.2c-0.3-0.7-0.6-1.4-0.9-2.1C18.9,70.9,17.8,67,17,62c-0.1-0.9,0.5-1.8,1.4-1.9
					c0.9-0.2,1.8,0.5,1.9,1.4c0.8,4.7,1.8,8.4,3,11.3c0.3,0.7,0.6,1.4,0.9,2c1.8,4.1,3.6,8,0.4,10.9C23.1,87.1,21.6,87.5,20.5,87.5z
					"/>
			</g>
		</g>
	</g>
</g>
<g id="Lager_10" class="st0">
	<g class="st1">
		<g>
			<path class="st2" d="M56.7,106.3C29.3,106.3,7.1,84,7.1,56.7c0-27.4,22.3-49.6,49.6-49.6s49.6,22.3,49.6,49.6
				C106.3,84,84,106.3,56.7,106.3z M56.7,11.2c-25.1,0-45.5,20.4-45.5,45.5c0,25.1,20.4,45.5,45.5,45.5c25.1,0,45.5-20.4,45.5-45.5
				C102.2,31.6,81.8,11.2,56.7,11.2z"/>
		</g>
		<g>
			<path class="st2" d="M78.3,80.4c-0.5,0-1.1-0.2-1.5-0.6L55.2,58.2c-0.4-0.4-0.6-0.9-0.6-1.5V26.1c0-1.1,0.9-2.1,2.1-2.1
				c1.1,0,2.1,0.9,2.1,2.1v29.7l21,21c0.8,0.8,0.8,2.1,0,2.9C79.4,80.2,78.9,80.4,78.3,80.4z"/>
		</g>
	</g>
</g>
<g id="Lager_11" class="st0">
	<g class="st1">
		<g>
			<path class="st2" d="M82,110.6c-0.5,0-1.1-0.2-1.5-0.6l-4.8-4.8l-4.8,4.8c-0.8,0.8-2.2,0.8-3,0l-4.8-4.8l-4.8,4.8
				c-0.8,0.8-2.2,0.8-3,0l-4.8-4.8l-4.8,4.8c-0.8,0.8-2.2,0.8-3,0l-4.8-4.8l-4.8,4.8c-0.8,0.8-2.2,0.8-3,0l-4.8-4.8l-4.8,4.8
				c-0.8,0.8-2.2,0.8-3,0l-4.8-4.8l-1.8,1.8c-0.6,0.6-1.5,0.8-2.3,0.5c-0.8-0.3-1.3-1.1-1.3-2V11.7c0-4.9,4-9,9-9h81.3
				c4.9,0,9,4,9,9v93.7c0,0.9-0.5,1.6-1.3,2c-0.8,0.3-1.7,0.1-2.3-0.5l-1.8-1.8l-4.8,4.8c-0.8,0.8-2.2,0.8-3,0l-4.8-4.8l-4.8,4.8
				C83,110.4,82.5,110.6,82,110.6z M88.3,100c0.5,0,1.1,0.2,1.5,0.6l4.8,4.8l4.8-4.8c0.4-0.4,0.9-0.6,1.5-0.6h0
				c0.4,0,0.8,0.1,1.1,0.3V11.7c0-2.6-2.1-4.7-4.7-4.7H16c-2.6,0-4.7,2.1-4.7,4.7v88.6c0.8-0.5,2-0.4,2.6,0.3l4.8,4.8l4.8-4.8
				c0.8-0.8,2.2-0.8,3,0l4.8,4.8l4.8-4.8c0.8-0.8,2.2-0.8,3,0l4.8,4.8l4.8-4.8c0.8-0.8,2.2-0.8,3,0l4.8,4.8l4.8-4.8
				c0.8-0.8,2.2-0.8,3,0l4.8,4.8l4.8-4.8c0.8-0.8,2.2-0.8,3,0l4.8,4.8l4.8-4.8C87.2,100.2,87.7,100,88.3,100z"/>
		</g>
		<g>
			<path class="st2" d="M85.3,31.6H23.1c-1.2,0-2.1-1-2.1-2.1c0-1.2,1-2.1,2.1-2.1h62.2c1.2,0,2.1,1,2.1,2.1
				C87.4,30.7,86.4,31.6,85.3,31.6z"/>
		</g>
		<g>
			<path class="st2" d="M66.3,49.4H23.1c-1.2,0-2.1-1-2.1-2.1c0-1.2,1-2.1,2.1-2.1h43.2c1.2,0,2.1,1,2.1,2.1
				C68.4,48.4,67.5,49.4,66.3,49.4z"/>
		</g>
		<g>
			<path class="st2" d="M66.3,67.4H23.1c-1.2,0-2.1-1-2.1-2.1c0-1.2,1-2.1,2.1-2.1h43.2c1.2,0,2.1,1,2.1,2.1
				C68.4,66.5,67.5,67.4,66.3,67.4z"/>
		</g>
		<g>
			<path class="st2" d="M66.3,85.5H23.1c-1.2,0-2.1-1-2.1-2.1c0-1.2,1-2.1,2.1-2.1h43.2c1.2,0,2.1,1,2.1,2.1
				C68.4,84.5,67.5,85.5,66.3,85.5z"/>
		</g>
		<g>
			<path class="st2" d="M90,49.4h-9.5c-1.2,0-2.1-1-2.1-2.1c0-1.2,1-2.1,2.1-2.1H90c1.2,0,2.1,1,2.1,2.1
				C92.1,48.4,91.2,49.4,90,49.4z"/>
		</g>
		<g>
			<path class="st2" d="M90,67.4h-9.5c-1.2,0-2.1-1-2.1-2.1c0-1.2,1-2.1,2.1-2.1H90c1.2,0,2.1,1,2.1,2.1
				C92.1,66.5,91.2,67.4,90,67.4z"/>
		</g>
		<g>
			<path class="st2" d="M90,85.5h-9.5c-1.2,0-2.1-1-2.1-2.1c0-1.2,1-2.1,2.1-2.1H90c1.2,0,2.1,1,2.1,2.1
				C92.1,84.5,91.2,85.5,90,85.5z"/>
		</g>
	</g>
</g>
<g id="Lager_12">
	<g>
		<g>
			<g>
				<g>
					<path class="st2" d="M9.4,99.9c-1.3,0-2.3-1-2.3-2.3V74.1c0-1.3,1-2.3,2.3-2.3c1.3,0,2.3,1,2.3,2.3v23.5
						C11.8,98.9,10.7,99.9,9.4,99.9z"/>
				</g>
			</g>
			<g>
				<g>
					<path class="st2" d="M33.1,99.9c-1.3,0-2.3-1-2.3-2.3V62.2c0-1.3,1-2.3,2.3-2.3c1.3,0,2.3,1,2.3,2.3v35.4
						C35.4,98.9,34.3,99.9,33.1,99.9z"/>
				</g>
			</g>
			<g>
				<g>
					<path class="st2" d="M80.3,99.9c-1.3,0-2.3-1-2.3-2.3V31.2c0-1.3,1-2.3,2.3-2.3c1.3,0,2.3,1,2.3,2.3v66.4
						C82.7,98.9,81.6,99.9,80.3,99.9z"/>
				</g>
			</g>
			<g>
				<g>
					<path class="st2" d="M56.7,99.9c-1.3,0-2.3-1-2.3-2.3v-47c0-1.3,1-2.3,2.3-2.3c1.3,0,2.3,1,2.3,2.3v47
						C59,98.9,58,99.9,56.7,99.9z"/>
				</g>
			</g>
			<g>
				<g>
					<path class="st2" d="M104,99.9c-1.3,0-2.3-1-2.3-2.3V15.8c0-1.3,1-2.3,2.3-2.3c1.3,0,2.3,1,2.3,2.3v81.8
						C106.3,98.9,105.3,99.9,104,99.9z"/>
				</g>
			</g>
		</g>
	</g>
</g>
</svg>
