<svg xmlns="http://www.w3.org/2000/svg" viewBox="0 0 100 172.34"><defs><style>.cls-1{fill:#646569;}</style></defs><g id="Lager_2" data-name="Lager 2"><g id="Lager_1-2" data-name="Lager 1"><path class="cls-1" d="M50.68,95.35A3.65,3.65,0,0,0,53.18,89L9,47.68,53.18,6.33a3.65,3.65,0,0,0-5-5.34l-47,44a3.65,3.65,0,0,0,0,5.34l47,44A3.66,3.66,0,0,0,50.68,95.35Z"/><path class="cls-1" d="M96.34,172.34a3.66,3.66,0,0,0,3.66-3.66V81c0-10.69-3.3-19.36-9.8-25.75C78.64,43.85,61.22,44,60.47,44H3.66a3.66,3.66,0,1,0,0,7.31H60.53c.22,0,15.24-.08,24.57,9.13,5,5,7.59,11.87,7.59,20.51v87.71A3.65,3.65,0,0,0,96.34,172.34Z"/></g></g></svg>