<?xml version="1.0" encoding="utf-8"?>
<!-- Generator: Adobe Illustrator 26.5.0, SVG Export Plug-In . SVG Version: 6.00 Build 0)  -->
<svg version="1.1" id="Lager_1" xmlns="http://www.w3.org/2000/svg" xmlns:xlink="http://www.w3.org/1999/xlink" x="0px" y="0px"
	 viewBox="0 0 708.7 708.7" style="enable-background:new 0 0 708.7 708.7;" xml:space="preserve">
<style type="text/css">
	.st0{fill:#64666A;}
</style>
<g>
	<g>
		<g>
			<g>
				<path class="st0" d="M588.7,637.8H120c-27.1,0-49.1-22-49.1-49.1V120c0-27.1,22-49.1,49.1-49.1h367.2c3.1,0,6.1,1.2,8.3,3.4
					l139,139c2.2,2.2,3.4,5.2,3.4,8.3v367.2C637.8,615.8,615.8,637.8,588.7,637.8z M120,94.2c-14.2,0-25.7,11.5-25.7,25.7v468.8
					c0,14.2,11.5,25.7,25.7,25.7h468.8c14.2,0,25.7-11.5,25.7-25.7V226.4L482.3,94.2H120z"/>
			</g>
		</g>
		<g>
			<g>
				<path class="st0" d="M626.1,233.2H524.5c-27.1,0-49.1-22-49.1-49.1V82.6c0-4.7,2.8-9,7.2-10.8c4.4-1.8,9.4-0.8,12.7,2.5l139,139
					c3.3,3.3,4.3,8.4,2.5,12.7C635.1,230.4,630.8,233.2,626.1,233.2z M498.8,110.8v73.4c0,14.2,11.5,25.7,25.7,25.7h73.4
					L498.8,110.8z"/>
			</g>
		</g>
	</g>
	<g>
		<g>
			<rect x="155.5" y="183.4" class="st0" width="258.1" height="20.6"/>
		</g>
	</g>
	<g>
		<g>
			<rect x="155.5" y="242.9" class="st0" width="258.1" height="20.6"/>
		</g>
	</g>
	<g>
		<g>
			<rect x="407.1" y="481" class="st0" width="153.3" height="20.6"/>
		</g>
	</g>
	<g>
		<g>
			<rect x="407.1" y="540.5" class="st0" width="153.3" height="20.6"/>
		</g>
	</g>
	<g>
		<g>
			<rect x="155.5" y="302.4" class="st0" width="401.1" height="20.6"/>
		</g>
	</g>
	<g>
		<g>
			<rect x="155.5" y="362" class="st0" width="401.1" height="20.6"/>
		</g>
	</g>
	<g>
		<g>
			<rect x="407.1" y="421.5" class="st0" width="150.8" height="20.6"/>
		</g>
	</g>
	<g>
		<g>
			<path class="st0" d="M370.6,572.9H155.5c-6.5,0-11.7-5.2-11.7-11.7V427.5c0-6.5,5.2-11.7,11.7-11.7h215.1
				c6.5,0,11.7,5.2,11.7,11.7v133.7C382.3,567.6,377,572.9,370.6,572.9z M167.2,549.5h191.7V439.2H167.2V549.5z"/>
		</g>
	</g>
</g>
</svg>
