<svg xmlns="http://www.w3.org/2000/svg" viewBox="0 0 100 80.03"><defs><style>.cls-1{fill:#646569;}</style></defs><g id="Lager_2" data-name="Lager 2"><g id="Lager_1-2" data-name="Lager 1"><path class="cls-1" d="M86.71,80H12.23a8.51,8.51,0,0,1-8.39-7.9L0,8.12A7.62,7.62,0,0,1,7.66,0H30A13.64,13.64,0,0,1,40.84,6.27l2.4,4.17a10.06,10.06,0,0,0,7.64,4.42H92.54A7.36,7.36,0,0,1,100,23L95.3,72.21A8.81,8.81,0,0,1,86.71,80ZM7.66,3.7A3.91,3.91,0,0,0,3.71,7.9l3.83,64a4.82,4.82,0,0,0,4.69,4.42H86.71a5.11,5.11,0,0,0,4.91-4.47l4.66-49.19a3.67,3.67,0,0,0-3.74-4.11H50.88A13.64,13.64,0,0,1,40,12.28l-2.4-4.16A10,10,0,0,0,30,3.7Z"/><path class="cls-1" d="M20.14,69l-.28,0a1.86,1.86,0,0,1-1.55-2.11c0-.29,4.38-28.93,5.53-40.4C24.39,21,26,17.35,28.47,15.7a5.39,5.39,0,0,1,4-.84H60.73a1.85,1.85,0,1,1,0,3.7H32.28a1.2,1.2,0,0,1-.54-.08,1.8,1.8,0,0,0-1.33.37c-.84.6-2.33,2.43-2.89,8C26.36,38.36,22,67.1,22,67.38A1.86,1.86,0,0,1,20.14,69Z"/></g></g></svg>