<svg xmlns="http://www.w3.org/2000/svg" viewBox="0 0 100 126.56"><defs><style>.cls-1{fill:#646569;}</style></defs><g id="Lager_2" data-name="Lager 2"><g id="Lager_1-2" data-name="Lager 1"><path class="cls-1" d="M31.65,113.56a1.67,1.67,0,0,1-.31,0,2,2,0,0,1-1.69-2.31A53.49,53.49,0,0,1,34,97.61a30.85,30.85,0,0,1,4.53-6.91,2,2,0,1,1,3,2.69,26.72,26.72,0,0,0-3.91,6,49.54,49.54,0,0,0-4,12.46A2,2,0,0,1,31.65,113.56Z"/><path class="cls-1" d="M71,113.56a2,2,0,0,1-2-1.7c0-.12-2-12-9.42-18.27a2,2,0,0,1,2.61-3.09c8.59,7.26,10.72,20.18,10.8,20.73a2,2,0,0,1-1.68,2.31A1.72,1.72,0,0,1,71,113.56Z"/><path class="cls-1" d="M51,91.53c-6.38,0-11.31-6.93-13.2-13.38A2,2,0,1,1,41.66,77c1.48,5.07,5.25,10.47,9.31,10.47,4.78,0,9.66-8,10-14.18a2,2,0,0,1,2-1.92h.1A2,2,0,0,1,65,73.51C64.63,80.68,58.86,91.53,51,91.53Z"/><path class="cls-1" d="M37.28,79.89a2,2,0,0,1-1.92-1.37,21.4,21.4,0,0,1-1-6.38,16.95,16.95,0,0,1,33.85-1.22A1.89,1.89,0,0,1,68,72c-1.8,3.6-8.64,4.58-10.69,4.8a2,2,0,0,1-2.16-2.54s.06-.25.14-.71c-5.07,3.54-13.09,6.13-17.94,6.37ZM51.34,59.23A12.92,12.92,0,0,0,38.43,72.14a18.38,18.38,0,0,0,.36,3.54c4.81-.7,12-3.4,15.53-6.5a5.34,5.34,0,0,0,1.52-1.84,2,2,0,0,1,3.89.77c0,1,0,2-.07,3,0,.43-.06.83-.1,1.2a11.83,11.83,0,0,0,4.58-1.8A12.94,12.94,0,0,0,51.34,59.23Z"/><path class="cls-1" d="M78.35,126.56H21.42a8.73,8.73,0,0,1-8.72-8.72V42.68A8.73,8.73,0,0,1,21.42,34H41.67a2,2,0,0,1,0,4H21.42a4.69,4.69,0,0,0-4.68,4.68v75.16a4.69,4.69,0,0,0,4.68,4.68H78.35A4.68,4.68,0,0,0,83,117.84V42.68A4.68,4.68,0,0,0,78.35,38H65.93a2,2,0,0,1,0-4H78.35a8.73,8.73,0,0,1,8.72,8.72v75.16A8.73,8.73,0,0,1,78.35,126.56Z"/><path class="cls-1" d="M85,113.56H14.72a2,2,0,1,1,0-4H85a2,2,0,1,1,0,4Z"/><path class="cls-1" d="M55.62,43.66H47.05a6.48,6.48,0,0,1-6.48-6.48V15.42a6.48,6.48,0,0,1,6.48-6.48h8.57a6.48,6.48,0,0,1,6.48,6.48V37.18A6.48,6.48,0,0,1,55.62,43.66ZM47.05,13a2.44,2.44,0,0,0-2.44,2.44V37.18a2.44,2.44,0,0,0,2.44,2.44h8.57a2.44,2.44,0,0,0,2.44-2.44V15.42A2.44,2.44,0,0,0,55.62,13Z"/><path class="cls-1" d="M51.33,28.37a5.79,5.79,0,1,1,5.79-5.79A5.79,5.79,0,0,1,51.33,28.37Zm0-7.53a1.74,1.74,0,1,0,1.74,1.74A1.74,1.74,0,0,0,51.33,20.84Z"/><path class="cls-1" d="M60.08,24.6a1.87,1.87,0,0,1-.57-.08A2,2,0,0,1,58.14,22c1.62-5.6,8-15.23,20.48-11.62,6.63,1.91,10.53,2,13.06.42,2.18-1.41,3.59-4.38,4.3-9.1a2,2,0,1,1,4,.6c-.89,5.94-2.89,9.83-6.12,11.9-4.53,2.91-10.81,1.66-16.36.06C65.73,10.88,62.17,22.64,62,23.15A2,2,0,0,1,60.08,24.6Z"/><path class="cls-1" d="M33.52,31.42a10.17,10.17,0,0,1-2.77-.37c-5.19-1.45-8.44-7-10.94-12.17C14.52,7.84,3.37,13,2.89,13.23A2,2,0,0,1,1.15,9.58c5.26-2.52,16.69-4.16,22.31,7.55,3,6.22,5.49,9.22,8.37,10,2.5.7,5.66-.23,9.65-2.84A2,2,0,0,1,43.7,27.7C39.89,30.19,36.53,31.42,33.52,31.42Z"/></g></g></svg>