<?xml version="1.0" encoding="utf-8"?>
<!-- Generator: Adobe Illustrator 26.3.1, SVG Export Plug-In . SVG Version: 6.00 Build 0)  -->
<svg version="1.1" xmlns="http://www.w3.org/2000/svg" xmlns:xlink="http://www.w3.org/1999/xlink" x="0px" y="0px"
	 viewBox="0 0 113.4 113.4" style="enable-background:new 0 0 113.4 113.4;" xml:space="preserve">
<style type="text/css">
	.st0{display:none;}
	.st1{display:inline;}
	.st2{fill:#636569;}
	.st3{fill:#64666A;}
</style>
<g id="Lager_1" class="st0">
	<g class="st1">
		<g>
			<g>
				<path class="st2" d="M56.7,57.6c-0.2,0-0.5,0-0.7-0.2L2.9,33.3c-0.6-0.3-1-0.9-1-1.5c0-0.7,0.4-1.3,1-1.5L56,6.2
					c0.4-0.2,1-0.2,1.4,0l53.1,24.1c0.6,0.3,1,0.9,1,1.5c0,0.7-0.4,1.3-1,1.5L63.7,54.6c-0.9,0.4-1.9,0-2.2-0.8
					c-0.4-0.9,0-1.9,0.8-2.2l43.4-19.7l-49-22.2l-49,22.2l49.7,22.6c0.9,0.4,1.2,1.4,0.8,2.2C57.9,57.2,57.3,57.6,56.7,57.6z"/>
			</g>
		</g>
		<g>
			<g>
				<path class="st2" d="M56.7,73.3c-0.2,0-0.5-0.1-0.7-0.2L2.9,49.1C2,48.7,1.6,47.7,2,46.8C2.4,46,3.4,45.6,4.3,46l52.4,23.8
					L109.1,46c0.9-0.4,1.9,0,2.2,0.8c0.4,0.9,0,1.9-0.8,2.2L57.4,73.2C57.2,73.3,56.9,73.3,56.7,73.3z"/>
			</g>
		</g>
		<g>
			<g>
				<path class="st2" d="M56.7,90.4c-0.2,0-0.5-0.1-0.7-0.2L2.9,66.1C2,65.7,1.6,64.7,2,63.9C2.4,63,3.4,62.6,4.3,63l52.4,23.8
					L109.1,63c0.9-0.4,1.9,0,2.2,0.8c0.4,0.9,0,1.9-0.8,2.2L57.4,90.2C57.2,90.3,56.9,90.4,56.7,90.4z"/>
			</g>
		</g>
		<g>
			<g>
				<path class="st2" d="M56.7,107.4c-0.2,0-0.5-0.1-0.7-0.2L2.9,83.1C2,82.7,1.6,81.7,2,80.9C2.4,80,3.4,79.7,4.3,80l52.4,23.8
					L109.1,80c0.9-0.4,1.9,0,2.2,0.8c0.4,0.9,0,1.9-0.8,2.2l-53.1,24.1C57.2,107.3,56.9,107.4,56.7,107.4z"/>
			</g>
		</g>
	</g>
</g>
<g id="Lager_2" class="st0">
	<g class="st1">
		<g>
			<path class="st3" d="M56.7,64.8L56.7,64.8c-2.9,0-5.6-1.6-7-4.1c-1.1-1.9-1.3-4.1-0.8-6.2c0.6-2.1,1.9-3.8,3.8-4.9
				c1.2-0.7,2.6-1.1,4-1.1c2.9,0,5.6,1.6,7,4.1c2.2,3.9,0.9,8.8-3,11.1C59.5,64.4,58.1,64.8,56.7,64.8z M56.7,52
				c-0.8,0-1.6,0.2-2.3,0.6c-1.1,0.6-1.9,1.6-2.2,2.8c-0.3,1.2-0.2,2.5,0.4,3.5c0.8,1.4,2.4,2.3,4.1,2.3l0,0c0.8,0,1.6-0.2,2.3-0.6
				c2.2-1.3,3-4.1,1.7-6.4C59.9,52.9,58.4,52,56.7,52z"/>
		</g>
		<g>
			<path class="st3" d="M71.2,109.4c-2.5,0-5-0.5-7.2-1.4c-5-2.3-7.5-6.9-6.8-12.9c0.5-5,3-8.7,5.2-11.9c2.6-3.8,4.9-7.1,3.7-12.1
				c0-0.1,0-0.1,0-0.2c-0.3,0.2-0.7,0.4-1,0.6c-2.9,1.6-6.1,2.4-9.3,2.2c-1.7,4-5,9.3-11.1,14C40.5,91,25.4,100.6,10.6,87
				c-6-5.5-8.3-15.8-5.1-22.9c2.3-5,6.9-7.5,12.9-6.8c5,0.5,8.7,3,11.9,5.2c3.8,2.6,7.1,4.9,12.1,3.7c0.1,0,0.1,0,0.2,0
				c-0.2-0.3-0.4-0.7-0.6-1c-1.6-2.9-2.4-6.1-2.2-9.3c-4-1.7-9.3-5-14-11.1c-3.3-4.3-12.9-19.3,0.7-34.1c5.5-6,15.8-8.3,22.9-5.1
				c5,2.3,7.5,6.9,6.8,12.9c-0.5,5-3,8.7-5.2,11.9c-2.6,3.8-4.9,7.1-3.7,12.1c0,0.1,0,0.1,0,0.2c0.3-0.2,0.7-0.4,1-0.6
				c3.3-1.9,6.9-2.6,10.6-2.1c0.9,0.1,1.6,1,1.5,1.9c-0.1,0.9-1,1.6-1.9,1.5c-3-0.4-5.9,0.2-8.5,1.7c-0.9,0.5-1.7,1.1-2.5,1.8
				c-0.4,0.4-1,0.5-1.6,0.4c-0.6-0.1-1-0.6-1.2-1.1c-0.3-1-0.6-1.9-0.8-2.9c-1.5-6.5,1.4-10.7,4.2-14.8c2.1-3,4.2-6.1,4.7-10.3
				c0.5-4.5-1.2-7.7-4.8-9.4c-5.6-2.5-14.5-0.5-19,4.3c-11.8,12.8-3.4,26-0.5,29.7c4.6,6.1,10,9,13.7,10.4c0.7,0.3,1.2,1,1.1,1.8
				c-0.4,3,0.2,5.9,1.7,8.5c0.5,0.9,1.1,1.7,1.8,2.5c0.4,0.4,0.5,1,0.4,1.6c-0.1,0.6-0.6,1-1.1,1.2c-1,0.3-1.9,0.6-2.9,0.8
				c-6.5,1.5-10.7-1.4-14.8-4.2c-3-2.1-6.1-4.2-10.3-4.7c-4.5-0.5-7.7,1.2-9.4,4.8c-2.5,5.6-0.5,14.5,4.3,19
				c12.8,11.8,26,3.4,29.7,0.5c6.1-4.6,9-10,10.4-13.7c0.3-0.7,1-1.2,1.8-1.1c3,0.4,5.9-0.2,8.5-1.7c0.9-0.5,1.7-1.1,2.5-1.8
				c0.4-0.4,1-0.5,1.6-0.4c0.6,0.1,1,0.6,1.2,1.1c0.3,0.9,0.6,1.9,0.8,2.9c1.5,6.5-1.4,10.7-4.2,14.8c-2.1,3-4.2,6.1-4.7,10.3
				c-0.5,4.5,1.2,7.7,4.8,9.4c5.6,2.5,14.5,0.5,19-4.3c11.8-12.8,3.4-26,0.5-29.7c-4.6-6.1-10-9-13.7-10.4c-0.7-0.3-1.2-1-1.1-1.8
				c0.4-3-0.2-5.9-1.7-8.5c-0.5-0.9-1.1-1.7-1.8-2.5c-0.4-0.4-0.5-1-0.4-1.6c0.1-0.6,0.6-1,1.1-1.2c1-0.3,1.9-0.6,2.9-0.8
				c6.5-1.5,10.7,1.4,14.8,4.2c3,2.1,6.1,4.2,10.3,4.7c4.5,0.5,7.7-1.2,9.4-4.8c2.5-5.6,0.5-14.5-4.3-19c-12.8-11.8-26-3.4-29.7-0.5
				c-1.8,1.4-3.5,3-5,4.7c-0.6,0.7-1.7,0.8-2.4,0.2c-0.7-0.6-0.8-1.7-0.2-2.4c1.6-1.9,3.5-3.7,5.5-5.2c4.3-3.3,19.3-12.9,34.1,0.7
				c6,5.6,8.3,15.8,5.1,22.9c-2.3,5-6.9,7.5-12.9,6.8c-5-0.5-8.7-3-11.9-5.2c-3.8-2.6-7.1-4.9-12.1-3.7c-0.1,0-0.1,0-0.2,0
				c0.2,0.3,0.4,0.7,0.6,1c1.6,2.9,2.4,6.1,2.2,9.3c4,1.7,9.3,5,14,11.1C91,72.9,100.6,88,87,102.8C83.1,107,77,109.4,71.2,109.4z"
				/>
		</g>
	</g>
</g>
<g id="Lager_3" class="st0">
	<g class="st1">
		<g>
			<g>
				<path class="st2" d="M53.9,106.8c-27.6,0-50.1-22.5-50.1-50.1c0-27.6,22.5-50.1,50.1-50.1c16.7,0,32.2,8.3,41.5,22.1
					c0.6,0.9,0.4,2.1-0.5,2.7c-0.9,0.6-2.1,0.4-2.7-0.5c-8.6-12.8-22.9-20.4-38.3-20.4c-25.5,0-46.2,20.7-46.2,46.2
					c0,25.5,20.7,46.2,46.2,46.2c25.5,0,46.2-20.7,46.2-46.2c0-4.2-0.6-8.3-1.7-12.3c-0.3-1,0.3-2.1,1.4-2.4c1-0.3,2.1,0.3,2.4,1.4
					c1.2,4.3,1.8,8.8,1.8,13.4C104,84.3,81.5,106.8,53.9,106.8z"/>
			</g>
		</g>
		<g>
			<g>
				<path class="st2" d="M51.3,89.9c-0.6,0-1.2-0.3-1.6-0.8l-26-35.2c-0.6-0.9-0.5-2.1,0.4-2.7c0.9-0.6,2.1-0.5,2.7,0.4l24.4,33.1
					l54.8-74.9c0.6-0.9,1.8-1.1,2.7-0.4c0.9,0.6,1.1,1.8,0.4,2.7L52.9,89.1C52.5,89.6,51.9,89.9,51.3,89.9
					C51.3,89.9,51.3,89.9,51.3,89.9z"/>
			</g>
		</g>
	</g>
</g>
<g id="Lager_4" class="st0">
	<g class="st1">
		<g>
			<g>
				<g>
					<path class="st2" d="M84.9,68.9c-0.6,0-1.2,0-1.9-0.1c-5.5-0.8-9.8-4.9-10.9-10.3c-0.2-1,0.4-1.9,1.4-2.1
						c1-0.2,1.9,0.4,2.1,1.4c0.8,3.9,3.9,6.9,7.9,7.5c2.5,0.4,4.9-0.3,6.9-1.8c2-1.5,3.3-3.7,3.6-6.2c0.7-5.1-2.8-9.9-7.9-10.6
						c-3.9-0.6-7.8,1.4-9.6,4.9c-0.5,0.9-1.6,1.2-2.5,0.8c-0.9-0.5-1.2-1.6-0.8-2.5c2.5-4.9,7.9-7.6,13.3-6.8c7.1,1,12,7.6,11,14.7
						c-0.5,3.4-2.3,6.5-5.1,8.6C90.4,68,87.7,68.9,84.9,68.9z"/>
				</g>
			</g>
			<g>
				<path class="st2" d="M85,99.7c-0.6,0-1.2-0.3-1.5-0.8c-0.8-1.3-19.8-31.1-19.8-42.3c0-11.8,9.6-21.4,21.3-21.4
					c10,0,18.5,6.8,20.8,16.5c0.4,1.6,0.5,3.2,0.5,4.8c0,1-0.1,2.2-0.4,3.6c-0.8,3.6-2.7,8.5-5.6,14.5
					c-5.7,11.7-13.6,24.1-13.7,24.2C86.2,99.3,85.6,99.7,85,99.7z M85,38.8c-9.8,0-17.7,8-17.7,17.7c0,7.7,11.6,28.1,17.7,37.9
					c2.6-4.2,7.9-13,12-21.4c2.8-5.8,4.6-10.4,5.4-13.7c0.2-1.1,0.4-2,0.4-2.8c0-1.4-0.2-2.7-0.5-4C100.3,44.4,93.3,38.8,85,38.8z"
					/>
			</g>
		</g>
		<g>
			<g>
				<path class="st2" d="M33,86.2c-0.3,0-0.7-0.1-1-0.3c-0.5-0.3-0.8-0.9-0.8-1.5V26.3c0-0.7,0.4-1.4,1.1-1.7l24.4-10.8
					c0.6-0.2,1.2-0.2,1.7,0.1c0.5,0.3,0.8,0.9,0.8,1.5v58.1c0,0.7-0.4,1.4-1.1,1.7L33.8,86C33.5,86.1,33.3,86.2,33,86.2z M34.9,27.5
					v54.1l20.7-9.2V18.3L34.9,27.5z"/>
			</g>
			<g>
				<path class="st2" d="M33.3,86.2c-0.2,0-0.5-0.1-0.7-0.2L8.2,75.3c-0.7-0.3-1.1-0.9-1.1-1.7V15.5c0-0.6,0.3-1.2,0.8-1.5
					c0.5-0.3,1.2-0.4,1.7-0.1L34,24.6c0.7,0.3,1.1,0.9,1.1,1.7v58.1c0,0.6-0.3,1.2-0.8,1.5C34,86.1,33.6,86.2,33.3,86.2z M10.7,72.4
					l20.7,9.2V27.5l-20.7-9.2V72.4z"/>
			</g>
			<g>
				<path class="st2" d="M66.5,79.4c-0.2,0-0.5,0-0.7-0.2l-9.1-4c-0.7-0.3-1.1-0.9-1.1-1.7V15.5c0-0.6,0.3-1.2,0.8-1.5
					c0.5-0.3,1.2-0.4,1.7-0.1l24.4,10.8c0.7,0.3,1.1,0.9,1.1,1.7v11c0,1-0.8,1.8-1.8,1.8c-1,0-1.8-0.8-1.8-1.8v-9.8l-20.7-9.2v54.1
					l8,3.5c0.9,0.4,1.3,1.5,0.9,2.4C67.8,79,67.2,79.4,66.5,79.4z"/>
			</g>
		</g>
	</g>
</g>
<g id="Lager_5" class="st0">
	<g class="st1">
		<g>
			<path class="st2" d="M56.7,106.3c-0.5,0-0.9-0.2-1.3-0.5c-1.4-1.4-34.8-34.9-34.8-62.6c0-19.9,16.2-36.1,36.1-36.1
				c19.9,0,36.1,16.2,36.1,36.1c0,28.5-33.4,61.3-34.8,62.6C57.6,106.1,57.2,106.3,56.7,106.3z M56.7,10.8
				c-17.9,0-32.4,14.5-32.4,32.4c0,23.3,26.2,52.2,32.4,58.7c6.2-6.4,32.4-34.8,32.4-58.7C89.1,25.3,74.6,10.8,56.7,10.8z"/>
		</g>
		<g>
			<path class="st2" d="M56.7,60.1c-9.9,0-17.9-8-17.9-17.9c0-9.9,8-17.9,17.9-17.9c9.9,0,17.9,8,17.9,17.9
				C74.6,52.1,66.5,60.1,56.7,60.1z M56.7,28.1c-7.8,0-14.2,6.4-14.2,14.2s6.4,14.2,14.2,14.2c7.8,0,14.2-6.4,14.2-14.2
				S64.5,28.1,56.7,28.1z"/>
		</g>
	</g>
</g>
<g id="Lager_6" class="st0">
	<g class="st1">
		<g>
			<path class="st3" d="M106.3,56.7c0,1.8-1.4,3.2-3.2,3.2H10.3c-1.8,0-3.2-1.4-3.2-3.2s1.4-3.2,3.2-3.2h92.8
				C104.9,53.5,106.3,54.9,106.3,56.7z"/>
		</g>
		<g>
			<path class="st3" d="M59.9,103.1c0,1.8-1.4,3.2-3.2,3.2s-3.2-1.4-3.2-3.2l0-92.8c0-1.8,1.4-3.2,3.2-3.2c1.8,0,3.2,1.4,3.2,3.2
				L59.9,103.1z"/>
		</g>
	</g>
</g>
<g id="Lager_7" class="st0">
	<g class="st1">
		<g>
			<path class="st2" d="M104.2,107H18.7c-3.6,0-6.5-1.1-8.6-3.3c-3.1-3.3-3.1-7.8-3.1-8.4V16.8c0-1.1,0.9-2.1,2.1-2.1
				c1.1,0,2.1,0.9,2.1,2.1v78.5c0,0,0,0.1,0,0.1c0,0-0.1,3.3,1.9,5.4c1.2,1.3,3.1,2,5.6,2h83.4V27.2H17.5c-1.1,0-2.1-0.9-2.1-2.1
				c0-1.1,0.9-2.1,2.1-2.1h86.7c1.1,0,2.1,0.9,2.1,2.1v79.7C106.3,106,105.4,107,104.2,107z"/>
		</g>
		<g>
			<path class="st2" d="M85.2,27.2H37.6c-1.1,0-2.1-0.9-2.1-2.1c0-1.1,0.9-2.1,2.1-2.1h45.5V10.6H18.4c-1.1,0-2.1-0.9-2.1-2.1
				c0-1.1,0.9-2.1,2.1-2.1h66.8c1.1,0,2.1,0.9,2.1,2.1v16.7C87.2,26.3,86.3,27.2,85.2,27.2z"/>
		</g>
		<g>
			<path class="st2" d="M17.5,27.2c-5.7,0-10.4-4.7-10.4-10.4c0-5.7,4.7-10.4,10.4-10.4c1.1,0,2.1,0.9,2.1,2.1
				c0,1.1-0.9,2.1-2.1,2.1c-3.5,0-6.3,2.8-6.3,6.3c0,3.5,2.8,6.3,6.3,6.3c1.1,0,2.1,0.9,2.1,2.1C19.6,26.3,18.6,27.2,17.5,27.2z"/>
		</g>
		<g>
			<path class="st2" d="M90.8,71.5c-4,0-7.2-3.2-7.2-7.2s3.2-7.2,7.2-7.2c4,0,7.2,3.2,7.2,7.2S94.7,71.5,90.8,71.5z M90.8,61.3
				c-1.7,0-3,1.4-3,3c0,1.7,1.4,3,3,3c1.7,0,3-1.4,3-3C93.8,62.7,92.4,61.3,90.8,61.3z"/>
		</g>
	</g>
</g>
<g id="Lager_8">
	<g>
		<g>
			<path class="st2" d="M56.7,106.3c-0.2,0-0.4,0-0.7-0.1c-0.4-0.2-10-4.1-19.7-12C23.3,83.6,16.4,71,16.4,57.7V24
				c0-4.3,3.7-7.7,8.2-7.7c0,0,0.1,0,0.1,0c0,0,0.6,0,1.6,0c4.9,0,17.6-0.9,29.4-9c0.6-0.4,1.4-0.4,2,0c11.8,8.1,24.5,9,29.4,9
				c1,0,1.6,0,1.6,0c0,0,0.1,0,0.1,0c4.5,0,8.2,3.5,8.2,7.7v33.7c0,13.3-6.9,25.9-19.9,36.5c-9.7,7.9-19.3,11.8-19.7,12
				C57.1,106.3,56.9,106.3,56.7,106.3z M24.5,19.8c-2.6,0-4.7,1.9-4.7,4.3v33.7c0,27.4,31.9,42.8,36.9,45c5-2.2,36.9-17.6,36.9-45
				V24c0-2.3-2.1-4.2-4.7-4.3c-0.2,0-0.8,0-1.8,0c-5.1,0-18.1-0.9-30.4-8.9c-12.3,8-25.3,8.9-30.4,8.9
				C25.4,19.8,24.7,19.8,24.5,19.8z"/>
		</g>
	</g>
</g>
</svg>
