<svg xmlns="http://www.w3.org/2000/svg" viewBox="0 0 100 100"><defs><style>.cls-1{fill:#646569;}</style></defs><g id="Lager_2" data-name="Lager 2"><g id="Lager_1-2" data-name="Lager 1"><path class="cls-1" d="M26,100h0a26,26,0,1,1,0-52H50a2,2,0,0,1,1.42.59A2,2,0,0,1,52,50V74a26,26,0,0,1-26,26Zm0-48a22,22,0,0,0,0,44v0A22,22,0,0,0,48,74V52Z"/><path class="cls-1" d="M74,52H59.15a2,2,0,1,1,0-4H74A22,22,0,0,0,74,4h0A22,22,0,0,0,52,26V50a2,2,0,0,1-4,0V26A26,26,0,0,1,74,0h0a26,26,0,0,1,0,52Z"/></g></g></svg>