<?xml version="1.0" encoding="utf-8"?>
<!-- Generator: Adobe Illustrator 26.4.1, SVG Export Plug-In . SVG Version: 6.00 Build 0)  -->
<svg version="1.1" id="Lager_1" xmlns="http://www.w3.org/2000/svg" xmlns:xlink="http://www.w3.org/1999/xlink" x="0px" y="0px"
	 viewBox="0 0 113.4 113.4" style="enable-background:new 0 0 113.4 113.4;" xml:space="preserve">
<style type="text/css">
	.st0{fill:#64666A;}
</style>
<g>
	<g>
		<path class="st0" d="M56.3,101.2c-4.1,0-8.3-0.6-12.3-1.7C28,94.9,15.9,81.9,12.6,65.4c-0.2-0.9,0.4-1.9,1.4-2.1
			c0.9-0.2,1.9,0.4,2.1,1.4c3,15.1,14.1,27.2,29,31.4c3.7,1.1,7.5,1.6,11.3,1.6c6.9,0,13.8-1.8,19.9-5.2
			c9.6-5.3,16.5-14.1,19.5-24.6c6.2-21.8-6.4-44.5-28.2-50.7C52.1,12.8,35.4,17.9,25,30.1c-1.2,1.5-3,0.5-6.9-2
			c-0.5-0.3-0.9-0.6-1.3-0.9l0.8,24.7l20.9-12.5c-2.2-1.1-5.1-2.6-6.9-3.7c-0.5-0.3-0.8-0.7-0.8-1.3c-0.1-0.5,0.1-1.1,0.5-1.4
			c8.9-9.4,22.1-13.1,34.6-9.5C84,28.7,94.7,47.9,89.4,66.1C86.9,75,81.1,82.3,73,86.8c-8,4.5-17.4,5.5-26.2,3
			C34.3,86.3,25,76.2,22.4,63.4c-0.2-0.9,0.4-1.9,1.4-2.1c0.9-0.2,1.9,0.4,2.1,1.4c2.3,11.4,10.7,20.5,21.9,23.7
			c8,2.3,16.3,1.3,23.6-2.7c7.2-4,12.5-10.6,14.7-18.6c4.7-16.4-4.9-33.6-21.3-38.3c-10.5-3-21.5-0.3-29.5,7
			c3.2,1.8,7.5,3.8,7.6,3.9c0.6,0.3,1,0.9,1,1.5c0,0.6-0.3,1.2-0.8,1.6L16.9,56.5c-0.5,0.3-1.2,0.3-1.7,0c-0.5-0.3-0.9-0.9-0.9-1.5
			l-1-31.2c0-0.7,0.3-1.3,0.9-1.6c0.6-0.3,1.3-0.3,1.8,0.1c2.5,1.8,5.6,3.9,7.1,4.7c11.3-12.7,29-17.9,45.5-13.2
			c23.6,6.7,37.3,31.4,30.6,55.1c-3.3,11.4-10.8,20.9-21.2,26.7C71.3,99.3,63.8,101.2,56.3,101.2z"/>
	</g>
</g>
</svg>
