<?xml version="1.0" encoding="utf-8"?>
<!-- Generator: Adobe Illustrator 26.5.0, SVG Export Plug-In . SVG Version: 6.00 Build 0)  -->
<svg version="1.1" id="Lager_1" xmlns="http://www.w3.org/2000/svg" xmlns:xlink="http://www.w3.org/1999/xlink" x="0px" y="0px"
	 viewBox="0 0 708.7 708.7" style="enable-background:new 0 0 708.7 708.7;" xml:space="preserve">
<style type="text/css">
	.st0{fill:#64666A;}
</style>
<g>
	<g>
		<g>
			<path class="st0" d="M607,409.2c3.2,0,6.4,1.2,8.8,3.7c4.9,4.9,4.9,12.8,0,17.7L363.2,683.1c-4.7,4.7-13,4.7-17.7,0L92.9,430.5
				c-4.9-4.9-4.9-12.8,0-17.7c4.9-4.9,12.8-4.9,17.7,0l243.8,243.8l243.8-243.8C600.6,410.4,603.8,409.2,607,409.2z"/>
		</g>
	</g>
	<g>
		<g>
			<path class="st0" d="M354.3,21.9c6.9,0,12.5,5.6,12.5,12.5v639.9c0,6.9-5.6,12.5-12.5,12.5c-6.9,0-12.5-5.6-12.5-12.5V34.4
				C341.8,27.5,347.4,21.9,354.3,21.9z"/>
		</g>
	</g>
</g>
</svg>
