<?xml version="1.0" encoding="utf-8"?>
<!-- Generator: Adobe Illustrator 26.4.1, SVG Export Plug-In . SVG Version: 6.00 Build 0)  -->
<svg version="1.1" id="Lager_1" xmlns="http://www.w3.org/2000/svg" xmlns:xlink="http://www.w3.org/1999/xlink" x="0px" y="0px"
	 viewBox="0 0 113.4 113.4" style="enable-background:new 0 0 113.4 113.4;" xml:space="preserve">
<style type="text/css">
	.st0{fill:#64666A;}
</style>
<g>
	<g>
		<g>
			<g>
				<path class="st0" d="M76.8,47.8c-0.8,0-1.5-0.7-1.5-1.5V29.1l-16-16H23.2v27.5c0,0.8-0.7,1.5-1.5,1.5c-0.8,0-1.5-0.7-1.5-1.5
					v-29c0-0.8,0.7-1.5,1.5-1.5H60c0.4,0,0.8,0.2,1.1,0.4l16.9,16.9c0.3,0.3,0.4,0.7,0.4,1.1v17.8C78.3,47.1,77.7,47.8,76.8,47.8z"
					/>
			</g>
			<g>
				<path class="st0" d="M76.8,30H60c-0.8,0-1.5-0.7-1.5-1.5V11.6c0-0.6,0.4-1.2,0.9-1.4c0.6-0.2,1.2-0.1,1.6,0.3l16.9,16.9
					c0.4,0.4,0.6,1.1,0.3,1.6C78,29.6,77.4,30,76.8,30z M61.5,26.9h11.7L61.5,15.2V26.9z"/>
			</g>
		</g>
		<g>
			<path class="st0" d="M52.7,85.5H21.7c-0.8,0-1.5-0.7-1.5-1.5V40.6c0-0.8,0.7-1.5,1.5-1.5c0.8,0,1.5,0.7,1.5,1.5v41.9h29.4
				c0.8,0,1.5,0.7,1.5,1.5C54.2,84.9,53.5,85.5,52.7,85.5z"/>
		</g>
	</g>
	<g>
		<g>
			<path class="st0" d="M68,85.8c-1.3,0-2.4-0.8-3.2-2.1c-0.4-0.7-1.1-1.1-2-1.1c-0.3,0-0.5,0-0.7,0.1c-1.5,0.6-3,0.3-4-0.7
				c-0.7-0.7-1-1.7-1-2.8c0-1-0.8-2-1.8-2.2c-1.4-0.2-2.4-0.9-2.9-2c-0.5-1.1-0.4-2.4,0.3-3.5c0.5-0.9,0.3-2.2-0.5-2.8
				c-1.1-0.8-1.7-2-1.6-3.2c0.1-1.2,0.9-2.2,2.1-2.9c0.9-0.5,1.3-1.7,1-2.7c-0.5-1.2-0.4-2.5,0.2-3.5c0.6-1,1.8-1.5,3.1-1.5l0.2,0
				c1,0,2-0.8,2.1-1.8c0.3-1.9,1.6-3.2,3.4-3.2c0.7,0,1.5,0.2,2.1,0.6c0.3,0.2,0.7,0.3,1.1,0.3c0.7,0,1.4-0.3,1.7-0.8
				c0.8-1,1.8-1.6,2.9-1.6c1.3,0,2.4,0.8,3.2,2.1c0.4,0.7,1.1,1.1,2,1.1l0,0c0.3,0,0.5,0,0.7-0.1c1.5-0.6,3-0.3,4,0.7
				c0.7,0.7,1,1.7,1,2.8c0,1,0.8,2,1.8,2.2c1.4,0.2,2.4,0.9,2.9,2c0.5,1.1,0.4,2.4-0.3,3.5c-0.5,0.9-0.3,2.2,0.5,2.8
				c1.1,0.8,1.7,2,1.6,3.2C87.9,70,87.2,71,86,71.7c-0.9,0.5-1.3,1.7-1,2.7c0.5,1.2,0.4,2.5-0.2,3.5c-0.6,1-1.8,1.5-3.1,1.5l-0.2,0
				c-1,0-2,0.8-2.1,1.8c-0.3,1.9-1.6,3.2-3.4,3.2c-0.7,0-1.5-0.2-2.1-0.6c-0.3-0.2-0.7-0.3-1.1-0.3c-0.7,0-1.4,0.3-1.7,0.8
				C70.2,85.2,69.1,85.8,68,85.8L68,85.8z M62.9,79.6c1.9,0,3.7,1.1,4.6,2.7c0.2,0.3,0.4,0.5,0.5,0.5c0.1,0,0.3-0.1,0.5-0.4
				c1-1.2,2.5-1.9,4.1-1.9c1,0,1.9,0.3,2.7,0.7c0.3,0.2,0.5,0.2,0.6,0.2c0.3,0,0.4-0.4,0.4-0.6c0.4-2.5,2.6-4.4,5.1-4.4l0.2,0
				c0.3,0,0.6-0.1,0.6-0.2c0.1-0.1,0.1-0.3-0.1-0.7c-1-2.4,0.1-5.3,2.3-6.5c0.3-0.2,0.5-0.4,0.5-0.5c0-0.1-0.1-0.3-0.4-0.5
				c-2-1.6-2.6-4.6-1.2-6.8c0.2-0.3,0.2-0.5,0.2-0.6c0-0.1-0.3-0.2-0.6-0.3c-2.5-0.4-4.5-2.7-4.4-5.2c0-0.3-0.1-0.5-0.1-0.6
				c0,0-0.1-0.1-0.2-0.1c-0.1,0-0.3,0-0.5,0.1c-0.6,0.2-1.2,0.4-1.9,0.4l0,0c-1.9,0-3.7-1.1-4.6-2.7c-0.2-0.3-0.4-0.5-0.5-0.5
				c-0.1,0-0.3,0.1-0.5,0.4c-1,1.2-2.5,1.9-4.1,1.9c-1,0-1.9-0.3-2.7-0.7c-0.3-0.2-0.5-0.2-0.6-0.2c-0.3,0-0.4,0.4-0.4,0.6
				c-0.4,2.5-2.6,4.4-5.1,4.4l-0.2,0c-0.3,0-0.6,0.1-0.6,0.2c-0.1,0.1-0.1,0.3,0.1,0.7c1,2.4-0.1,5.3-2.3,6.5
				c-0.3,0.2-0.5,0.4-0.5,0.5c0,0.1,0.1,0.3,0.4,0.5c2,1.6,2.6,4.6,1.2,6.8c-0.2,0.3-0.2,0.5-0.2,0.6c0,0.1,0.3,0.2,0.6,0.3
				c2.5,0.4,4.5,2.7,4.4,5.2c0,0.3,0.1,0.5,0.1,0.6c0,0,0.1,0.1,0.2,0.1c0.1,0,0.3,0,0.5-0.1C61.6,79.7,62.3,79.6,62.9,79.6z"/>
		</g>
		<g>
			<path class="st0" d="M69.3,78.4c-6.2,0-11.2-5-11.2-11.2S63.2,56,69.3,56c6.2,0,11.2,5,11.2,11.2S75.5,78.4,69.3,78.4z M69.3,59
				c-4.5,0-8.2,3.7-8.2,8.2c0,4.5,3.7,8.2,8.2,8.2c4.5,0,8.2-3.7,8.2-8.2C77.6,62.7,73.9,59,69.3,59z"/>
		</g>
		<g>
			<path class="st0" d="M83.5,100.4c-0.4,0-0.8-0.1-1.1-0.4c-5.1-5-9.3-10.7-12.5-17.1c-0.4-0.7-0.1-1.7,0.7-2
				c0.7-0.4,1.7-0.1,2,0.7c2.4,4.9,5.5,9.4,9.1,13.4c0-1.6,0.1-3.2,0.2-4.8c0-0.4,0.2-0.8,0.5-1c0.3-0.3,0.7-0.4,1.1-0.3
				c1.5,0.2,3,0.2,4.5,0.2c-2.9-3.2-5.3-6.7-7.3-10.6c-0.4-0.7-0.1-1.7,0.7-2c0.7-0.4,1.7-0.1,2,0.7c2.4,4.6,5.4,8.7,9.1,12.3
				c0.4,0.4,0.6,1,0.4,1.6c-0.2,0.6-0.7,0.9-1.3,1c-2.2,0.1-4.5,0.1-6.8,0c-0.1,2.2-0.1,4.5,0.1,6.8c0,0.6-0.3,1.2-0.9,1.5
				C83.9,100.3,83.7,100.4,83.5,100.4z"/>
		</g>
		<g>
			<path class="st0" d="M53.3,103.3c-0.2,0-0.4,0-0.6-0.1c-0.6-0.3-0.9-0.9-0.9-1.5c0.2-2.3,0.2-4.6,0.1-6.8c-2.3,0.2-4.6,0.2-6.8,0
				c-0.6,0-1.1-0.4-1.3-1c-0.2-0.6-0.1-1.2,0.4-1.6c4.9-4.8,8.7-10.5,11.2-16.9c0.3-0.8,1.2-1.2,2-0.9c0.8,0.3,1.2,1.2,0.9,2
				c-2.2,5.7-5.4,10.9-9.5,15.4c1.5,0,3-0.1,4.5-0.2c0.4,0,0.8,0.1,1.1,0.3c0.3,0.3,0.5,0.6,0.5,1c0.1,1.6,0.2,3.2,0.2,4.9
				c3.4-3.6,5.6-6.8,7.8-11c0.4-0.7,1.3-1,2-0.6c0.7,0.4,1,1.3,0.6,2c-2.9,5.5-6,9.5-11.1,14.5C54.1,103.2,53.7,103.3,53.3,103.3z"
				/>
		</g>
	</g>
	<g>
		<path class="st0" d="M50,34.2H30.5c-0.8,0-1.5-0.7-1.5-1.5c0-0.8,0.7-1.5,1.5-1.5H50c0.8,0,1.5,0.7,1.5,1.5
			C51.5,33.5,50.8,34.2,50,34.2z"/>
	</g>
	<g>
		<path class="st0" d="M66.7,40.1H30.5c-0.8,0-1.5-0.7-1.5-1.5c0-0.8,0.7-1.5,1.5-1.5h36.2c0.8,0,1.5,0.7,1.5,1.5
			C68.2,39.4,67.5,40.1,66.7,40.1z"/>
	</g>
	<g>
		<path class="st0" d="M66.7,46.4H30.5c-0.8,0-1.5-0.7-1.5-1.5c0-0.8,0.7-1.5,1.5-1.5h36.2c0.8,0,1.5,0.7,1.5,1.5
			C68.2,45.8,67.5,46.4,66.7,46.4z"/>
	</g>
</g>
</svg>
