<?xml version="1.0" encoding="utf-8"?>
<!-- Generator: Adobe Illustrator 27.9.0, SVG Export Plug-In . SVG Version: 6.00 Build 0)  -->
<svg version="1.1" id="Lager_1" xmlns="http://www.w3.org/2000/svg" xmlns:xlink="http://www.w3.org/1999/xlink" x="0px" y="0px"
	 viewBox="0 0 283.5 283.5" style="enable-background:new 0 0 283.5 283.5;" xml:space="preserve">
<style type="text/css">
	.st0{fill:#5F6263;}
</style>
<g>
	<g>
		<path class="st0" d="M245.9,200.8H37.5c-2.5,0-4.5-2-4.5-4.5V32.8c0-2.5,2-4.5,4.5-4.5h208.4c1.5,0,2.9,0.8,3.7,2
			c0.8,1.3,1,2.9,0.3,4.2l-35.4,80l35.4,80c0.6,1.4,0.5,3-0.3,4.2C248.8,200.1,247.4,200.8,245.9,200.8z M42,191.9h197.1l-33.4-75.5
			c-0.5-1.2-0.5-2.5,0-3.6l33.4-75.5H42V191.9z"/>
	</g>
	<g>
		<path class="st0" d="M37.5,272.5c-2.5,0-4.5-2-4.5-4.5V15.4c0-2.5,2-4.5,4.5-4.5c2.5,0,4.5,2,4.5,4.5V268
			C42,270.5,40,272.5,37.5,272.5z"/>
	</g>
</g>
</svg>
