<?xml version="1.0" encoding="utf-8"?>
<!-- Generator: Adobe Illustrator 26.5.0, SVG Export Plug-In . SVG Version: 6.00 Build 0)  -->
<svg version="1.1" id="Lager_1" xmlns="http://www.w3.org/2000/svg" xmlns:xlink="http://www.w3.org/1999/xlink" x="0px" y="0px"
	 viewBox="0 0 708.7 708.7" style="enable-background:new 0 0 708.7 708.7;" xml:space="preserve">
<style type="text/css">
	.st0{fill:#64666A;}
</style>
<g>
	<g>
		<g>
			<g>
				<path class="st0" d="M268.9,189c4.3,0,8.6,1.9,11.5,5.5c5.2,6.4,4.3,15.8-2.1,21l-169,138.9l169,138.9c6.4,5.2,7.3,14.6,2.1,21
					c-5.2,6.4-14.6,7.3-21,2.1L76.3,365.9c-3.5-2.8-5.5-7.1-5.5-11.5c0-4.5,2-8.7,5.5-11.5l183.1-150.4
					C262.2,190.1,265.5,189,268.9,189z"/>
			</g>
			<g>
				<path class="st0" d="M85.8,339.4H466c79.3,0,171.8,39.1,171.8,149.5c0,8.2-6.7,14.9-14.9,14.9c-8.2,0-14.9-6.7-14.9-14.9
					c0-111-108.7-119.6-142-119.6H85.8c-8.2,0-14.9-6.7-14.9-14.9C70.9,346.1,77.5,339.4,85.8,339.4z"/>
			</g>
		</g>
	</g>
</g>
</svg>
