<?xml version="1.0" encoding="utf-8"?>
<!-- Generator: Adobe Illustrator 26.4.1, SVG Export Plug-In . SVG Version: 6.00 Build 0)  -->
<svg version="1.1" id="Lager_1" xmlns="http://www.w3.org/2000/svg" xmlns:xlink="http://www.w3.org/1999/xlink" x="0px" y="0px"
	 viewBox="0 0 113.4 113.4" style="enable-background:new 0 0 113.4 113.4;" xml:space="preserve">
<style type="text/css">
	.st0{fill:#64666A;}
</style>
<g>
	<g>
		<g>
			<path class="st0" d="M56.7,58.1c-11.5,0-21.2-19-21.2-31c0-11.7,9.5-21.2,21.2-21.2c11.7,0,21.2,9.5,21.2,21.2
				C77.9,39.1,68.2,58.1,56.7,58.1z M56.7,6.9c-11.2,0-20.3,9.1-20.3,20.3c0,11.6,9.3,30,20.3,30c11,0,20.3-18.4,20.3-30
				C77,15.9,67.9,6.9,56.7,6.9z"/>
		</g>
	</g>
	<g>
		<g>
			<path class="st0" d="M98.9,107.5c-0.3,0-0.5-0.2-0.5-0.5c0-21.4-18.7-38.8-41.7-38.8C33.7,68.2,15,85.6,15,107
				c0,0.3-0.2,0.5-0.5,0.5c-0.3,0-0.5-0.2-0.5-0.5c0-21.9,19.1-39.8,42.7-39.8c23.5,0,42.7,17.8,42.7,39.8
				C99.3,107.3,99.1,107.5,98.9,107.5z"/>
		</g>
	</g>
</g>
</svg>
