<svg xmlns="http://www.w3.org/2000/svg" viewBox="0 0 100 100"><defs><style>.cls-1{fill:#646569;}</style></defs><g id="Lager_2" data-name="Lager 2"><g id="Lager_1-2" data-name="Lager 1"><path class="cls-1" d="M89.76,100H10.24A10.25,10.25,0,0,1,0,89.76V10.24A10.25,10.25,0,0,1,10.24,0H89.76A10.25,10.25,0,0,1,100,10.24V89.76A10.25,10.25,0,0,1,89.76,100ZM10.24,4.09a6.16,6.16,0,0,0-6.15,6.15V89.76a6.15,6.15,0,0,0,6.15,6.14H89.76a6.15,6.15,0,0,0,6.15-6.14V10.24a6.16,6.16,0,0,0-6.15-6.15Z"/><path class="cls-1" d="M50.73,48.93a11.74,11.74,0,0,1-7.38-2.5L1.16,12.19A2,2,0,0,1,3.74,9L45.93,43.25a8,8,0,0,0,9.87-.19L96.38,7.47a2,2,0,1,1,2.7,3.07L58.5,46.14A11.82,11.82,0,0,1,50.73,48.93Z"/></g></g></svg>