<?xml version="1.0" encoding="utf-8"?>
<!-- Generator: Adobe Illustrator 26.5.0, SVG Export Plug-In . SVG Version: 6.00 Build 0)  -->
<svg version="1.1" id="Lager_1" xmlns="http://www.w3.org/2000/svg" xmlns:xlink="http://www.w3.org/1999/xlink" x="0px" y="0px"
	 viewBox="0 0 708.7 708.7" style="enable-background:new 0 0 708.7 708.7;" xml:space="preserve">
<style type="text/css">
	.st0{clip-path:url(#SVGID_00000060717904421879839510000007686468229009670302_);}
	.st1{fill:#CE0E2D;}
</style>
<g>
	<defs>
		<rect id="SVGID_1_" x="70.9" y="142.5" width="566.9" height="423.6"/>
	</defs>
	<clipPath id="SVGID_00000178891855019014550310000003337720583158084774_">
		<use xlink:href="#SVGID_1_"  style="overflow:visible;"/>
	</clipPath>
	<g style="clip-path:url(#SVGID_00000178891855019014550310000003337720583158084774_);">
		<path class="st1" d="M509.6,564.2c-0.4,0-0.9-0.1-1.3-0.2c-2.4-0.7-3.8-3.3-3.1-5.8c0.2-0.5,16.2-54.3,18.5-121.9
			c1.4-39.5-2.1-75.9-10.4-108.2c-10.3-40.1-28-74-52.7-100.6c-71.4-76.9-200.6-95.4-384-54.9c-2.5,0.6-5-1-5.5-3.5
			c-0.5-2.5,1-5,3.5-5.5c186.9-41.3,319.1-21.9,392.8,57.7c25.8,27.8,44.3,63,54.9,104.7c8.5,33.2,12.1,70.5,10.7,110.9
			c-2.4,68.7-18.7,123.4-18.9,124C513.4,562.9,511.6,564.2,509.6,564.2z"/>
	</g>
	<g style="clip-path:url(#SVGID_00000178891855019014550310000003337720583158084774_);">
		<path class="st1" d="M506.6,566.2c-1.6,0-2.9-0.3-4-0.8c-4-1.6-14.6-6-50.8-90.7c-17.5-41.1-32.8-81.7-32.9-82.1
			c-0.9-2.4,0.3-5,2.7-5.9c2.4-0.9,5,0.3,5.9,2.7c0.2,0.4,15.3,40.8,32.8,81.8c32.2,75.3,43.2,84.7,45.8,85.7
			c0.2,0.1,4.8,1.7,24.2-13.9c11.4-9.2,25.9-22.6,42.9-39.9c29.2-29.6,56.3-60.6,56.5-60.9c1.7-1.9,4.6-2.1,6.5-0.4
			c1.9,1.7,2.1,4.6,0.4,6.5c-0.3,0.3-27.5,31.5-56.9,61.3c-17.3,17.6-32.1,31.2-43.7,40.6C520,563,511.6,566.2,506.6,566.2z"/>
	</g>
</g>
</svg>
