<svg xmlns="http://www.w3.org/2000/svg" viewBox="0 0 100 100.02"><defs><style>.cls-1{fill:#646569;}</style></defs><g id="Lager_2" data-name="Lager 2"><g id="Lager_1-2" data-name="Lager 1"><path class="cls-1" d="M45.91,91.86A45.94,45.94,0,0,1,13.43,13.45a45.93,45.93,0,0,1,64.95,65A45.6,45.6,0,0,1,45.91,91.86Zm0-87.76A41.83,41.83,0,0,0,16.33,75.51,41.83,41.83,0,0,0,75.48,16.35,41.54,41.54,0,0,0,45.91,4.1Z"/><path class="cls-1" d="M98,100a2.05,2.05,0,0,1-1.45-.6l-21-21a2,2,0,0,1,2.9-2.89l21,21A2.05,2.05,0,0,1,98,100Z"/></g></g></svg>