<?xml version="1.0" encoding="utf-8"?>
<!-- Generator: Adobe Illustrator 26.5.0, SVG Export Plug-In . SVG Version: 6.00 Build 0)  -->
<svg version="1.1" id="Lager_1" xmlns="http://www.w3.org/2000/svg" xmlns:xlink="http://www.w3.org/1999/xlink" x="0px" y="0px"
	 viewBox="0 0 708.7 708.7" style="enable-background:new 0 0 708.7 708.7;" xml:space="preserve">
<style type="text/css">
	.st0{fill:#64666A;}
</style>
<g>
	<path class="st0" d="M487.4,79.9L487.4,79.9c-0.1,0-0.2,0-0.3,0c-0.1,0-0.2,0-0.3,0H120c-22.1,0-40.1,18-40.1,40.1v468.8
		c0,22.1,18,40.1,40.1,40.1h468.8c22.1,0,40.1-18,40.1-40.1V221.8c0-0.1,0-0.2,0-0.3c0-0.1,0-0.1,0-0.2l0-0.1l0,0c0-0.1,0-0.2,0-0.2
		l0-0.1c0,0,0,0,0,0c0,0,0-0.1,0-0.2l0,0l0-0.1c0-0.1,0-0.1-0.1-0.2l0-0.1c0-0.1,0-0.1-0.1-0.1c0,0,0,0,0,0c0,0,0-0.1-0.1-0.2l0,0
		l-0.1-0.1c0,0-0.1-0.1-0.1-0.1l-0.1-0.1c-0.1-0.1-0.1-0.1-0.1-0.2l-139-139c0,0,0,0-0.1-0.1l-0.1-0.1c0,0-0.1-0.1-0.1-0.1l-0.1,0
		l0,0c-0.1-0.1-0.1-0.1-0.2-0.1l-0.1,0c0,0-0.1,0-0.1-0.1l-0.1,0c-0.1,0-0.1,0-0.2-0.1l-0.1,0l0,0c0,0,0,0-0.1,0L487.4,79.9
		L487.4,79.9z M489.8,110.8V89l15.4,15.4l99.1,99.1l15.4,15.4h-21.7h-73.4c-19.1,0-34.7-15.6-34.7-34.7V110.8z M524.5,224.2h89.9h9
		v9v355.5c0,19.1-15.6,34.7-34.7,34.7H120c-19.1,0-34.7-15.6-34.7-34.7V120c0-19.1,15.6-34.7,34.7-34.7h355.5h9v9v89.9
		C484.4,206.3,502.4,224.2,524.5,224.2z"/>
	<rect x="163.1" y="191" class="st0" width="242.9" height="5.5"/>
	<rect x="164.5" y="192.4" class="st0" width="240.1" height="2.6"/>
	<rect x="163.1" y="250.5" class="st0" width="242.9" height="5.5"/>
	<rect x="164.5" y="251.9" class="st0" width="240.1" height="2.6"/>
	<rect x="414.6" y="488.6" class="st0" width="138.1" height="5.5"/>
	<rect x="416.1" y="490" class="st0" width="135.3" height="2.6"/>
	<rect x="414.6" y="548.1" class="st0" width="138.1" height="5.5"/>
	<rect x="416.1" y="549.5" class="st0" width="135.3" height="2.6"/>
	<rect x="163.1" y="310" class="st0" width="385.9" height="5.5"/>
	<rect x="164.5" y="311.4" class="st0" width="383.1" height="2.6"/>
	<rect x="163.1" y="369.5" class="st0" width="385.9" height="5.5"/>
	<rect x="164.5" y="371" class="st0" width="383.1" height="2.6"/>
	<rect x="414.6" y="429.1" class="st0" width="135.7" height="5.5"/>
	<rect x="416.1" y="430.5" class="st0" width="132.8" height="2.6"/>
	<path class="st0" d="M370.6,563.9c1.5,0,2.7-1.2,2.7-2.7V427.5c0-1.5-1.2-2.7-2.7-2.7H155.5c-1.5,0-2.7,1.2-2.7,2.7v133.7
		c0,1.5,1.2,2.7,2.7,2.7H370.6z M158.2,549.5V439.2v-9h9h191.7h9v9v110.3v9h-9H167.2h-9V549.5z"/>
</g>
</svg>
