<?xml version="1.0" encoding="utf-8"?>
<!-- Generator: Adobe Illustrator 26.5.0, SVG Export Plug-In . SVG Version: 6.00 Build 0)  -->
<svg version="1.1" id="Lager_1" xmlns="http://www.w3.org/2000/svg" xmlns:xlink="http://www.w3.org/1999/xlink" x="0px" y="0px"
	 viewBox="0 0 708.7 708.7" style="enable-background:new 0 0 708.7 708.7;" xml:space="preserve">
<style type="text/css">
	.st0{fill:#64666A;}
</style>
<g>
	<g>
		<g>
			<g>
				<path class="st0" d="M529,627.2c-54.3,0-98.5-44.2-98.5-98.5c0-54.3,44.2-98.5,98.5-98.5c32.8,0,63.3,16.2,81.7,43.4
					c3.1,4.6,1.9,10.9-2.7,14c-4.6,3.1-10.9,1.9-14-2.7c-14.6-21.6-38.9-34.5-64.9-34.5c-43.2,0-78.3,35.1-78.3,78.3
					c0,43.2,35.1,78.3,78.3,78.3c43.2,0,78.3-35.1,78.3-78.3c0-7.1-0.9-14.1-2.8-20.9c-1.5-5.4,1.7-10.9,7-12.4
					c5.4-1.5,10.9,1.7,12.4,7c2.4,8.5,3.6,17.4,3.6,26.3C627.5,583,583.3,627.2,529,627.2z"/>
			</g>
		</g>
		<g>
			<g>
				<path class="st0" d="M524.2,596.1c-3.2,0-6.2-1.5-8.1-4.1l-47.7-64.7c-3.3-4.5-2.4-10.8,2.1-14.1c4.5-3.3,10.8-2.4,14.1,2.1
					l39.5,53.6l95.3-130.3c3.3-4.5,9.6-5.5,14.1-2.2c4.5,3.3,5.5,9.6,2.2,14.1L532.4,592C530.5,594.6,527.5,596.1,524.2,596.1
					C524.3,596.1,524.2,596.1,524.2,596.1z"/>
			</g>
		</g>
	</g>
	<g>
		<g>
			<g>
				<path class="st0" d="M301.3,369.2c-65.4,0-118.4-102.5-118.4-169.4c0-65.3,53.1-118.4,118.4-118.4
					c65.3,0,118.4,53.1,118.4,118.4C419.7,266.7,366.6,369.2,301.3,369.2z M301.3,101.7c-54.1,0-98.2,44-98.2,98.2
					c0,56.2,45.9,149.2,98.2,149.2c52.3,0,98.2-93,98.2-149.2C399.5,145.7,355.4,101.7,301.3,101.7z"/>
			</g>
		</g>
		<g>
			<g>
				<path class="st0" d="M81,627.2c-5.6,0-10.1-4.5-10.1-10.1c0-118.7,103.4-215.3,230.4-215.3c63,0,121.9,23.3,165.7,65.7
					c4,3.9,4.1,10.3,0.2,14.3c-3.9,4-10.3,4.1-14.3,0.2c-40-38.7-93.9-60-151.6-60c-115.9,0-210.2,87.5-210.2,195.1
					C91.1,622.7,86.5,627.2,81,627.2z"/>
			</g>
		</g>
	</g>
</g>
</svg>
